SplineFontDB: 3.2
FontName: FreshPixel
FullName: Fresh Pixel
FamilyName: Fresh Pixel
Weight: Regular
Copyright: Digitized data copyright (c) 2010 Google Corporation.\nCopyright (c) 2012 Red Hat, Inc.\nCopyright (c) 2023 Richard Acayan.
UComments: "2023-9-28: Created with FontForge (http://fontforge.org). Based on Liberation Mono."
Version: 001.000
ItalicAngle: 0
UnderlinePosition: -100
UnderlineWidth: 50
Ascent: 800
Descent: 200
InvalidEm: 0
LayerCount: 2
Layer: 0 0 "Back" 1
Layer: 1 0 "Fore" 0
XUID: [1021 735 -655526886 15713601]
FSType: 0
OS2Version: 0
OS2_WeightWidthSlopeOnly: 0
OS2_UseTypoMetrics: 1
CreationTime: 1695947506
ModificationTime: 1695948112
PfmFamily: 17
TTFWeight: 400
TTFWidth: 5
LineGap: 90
VLineGap: 0
OS2TypoAscent: 0
OS2TypoAOffset: 1
OS2TypoDescent: 0
OS2TypoDOffset: 1
OS2TypoLinegap: 90
OS2WinAscent: 0
OS2WinAOffset: 1
OS2WinDescent: 0
OS2WinDOffset: 1
HheadAscent: 0
HheadAOffset: 1
HheadDescent: 0
HheadDOffset: 1
OS2Vendor: 'PfEd'
MarkAttachClasses: 1
DEI: 91125
LangName: 1033 "" "" "" "" "" "" "" "" "" "" "" "" "" "Licensed under the SIL Open Font License, Version 1.1" "http://scripts.sil.org/OFL"
Encoding: ISO8859-1
UnicodeInterp: none
NameList: AGL For New Fonts
DisplaySize: -48
AntiAlias: 1
FitToEm: 0
WinInfo: 64 16 4
BeginPrivate: 0
EndPrivate
TeXData: 1 0 0 346030 173015 115343 0 1048576 115343 783286 444596 497025 792723 393216 433062 380633 303038 157286 324010 404750 52429 2506097 1059062 262144
BeginChars: 256 256

StartChar: exclam
Encoding: 33 33 1
Width: 459
VWidth: 0
Flags: HW
HStem: 50 84<167 292> 447 20G<167 292> 467 21G<167 292> 614 20G<167 292>
VStem: 167 125<50 134 217 634>
LayerCount: 2
Fore
SplineSet
167 634 m 25x98
 292 634 l 25
 292 550 l 25
 167 550 l 25
 167 634 l 25x98
167 550 m 25
 292 550 l 25
 292 467 l 25
 167 467 l 25xd8
 167 550 l 25
167 467 m 25
 292 467 l 25
 292 384 l 25
 167 384 l 25
 167 467 l 25
167 384 m 25
 292 384 l 25
 292 300 l 25
 167 300 l 25
 167 384 l 25
167 300 m 25
 292 300 l 25
 292 217 l 25
 167 217 l 25
 167 300 l 25
167 134 m 25
 292 134 l 25
 292 50 l 25
 167 50 l 25
 167 134 l 25
EndSplineSet
EndChar

StartChar: quotedbl
Encoding: 34 34 2
Width: 834
VWidth: 0
Flags: HW
HStem: 384 250<167 292 542 667> 447 20G<167 292 542 667> 467 21G<167 292 542 667>
VStem: 167 125<384 634> 542 125<384 634>
LayerCount: 2
Fore
SplineSet
167 634 m 25x98
 292 634 l 25
 292 550 l 25
 167 550 l 25
 167 634 l 25x98
542 634 m 25
 667 634 l 25
 667 550 l 25
 542 550 l 25
 542 634 l 25
167 550 m 25
 292 550 l 25
 292 467 l 25
 167 467 l 25x58
 167 550 l 25
542 550 m 25
 667 550 l 25
 667 467 l 25
 542 467 l 25
 542 550 l 25
167 467 m 25
 292 467 l 25x58
 292 384 l 25
 167 384 l 25x98
 167 467 l 25
542 467 m 25
 667 467 l 25x58
 667 384 l 25
 542 384 l 25x98
 542 467 l 25
EndSplineSet
EndChar

StartChar: numbersign
Encoding: 35 35 3
Width: 1084
VWidth: 0
Flags: HW
HStem: 50 21G<292 417 542 667> 217 83<167 292 417 542> 384 83<542 667 792 917> 467 21G<417 542 667 792> 614 20G<417 542 667 792>
VStem: 167 125<217 300> 292 125<50 467> 417 125<217 300 384 634> 542 125<50 300 384 467> 667 125<217 634> 792 125<384 467>
LayerCount: 2
Fore
SplineSet
417 634 m 25xc9
 542 634 l 25
 542 550 l 25
 417 550 l 25
 417 634 l 25xc9
667 634 m 25xc840
 792 634 l 25
 792 550 l 25
 667 550 l 25
 667 634 l 25xc840
417 550 m 25xd9
 542 550 l 25
 542 467 l 25xe9
 417 467 l 25xda
 417 550 l 25xd9
667 550 m 25xe840
 792 550 l 25
 792 467 l 25xe840
 667 467 l 25xe880
 667 550 l 25xe840
292 467 m 25xda
 417 467 l 25xda
 417 384 l 25
 292 384 l 25xea
 292 467 l 25xda
417 467 m 25
 542 467 l 25
 542 384 l 25xe9
 417 384 l 25xea
 417 467 l 25
542 467 m 25
 667 467 l 25
 667 384 l 25xe880
 542 384 l 25
 542 467 l 25
667 467 m 25
 792 467 l 25
 792 384 l 25xe840
 667 384 l 25
 667 467 l 25
792 467 m 25
 917 467 l 25
 917 384 l 25xe820
 792 384 l 25
 792 467 l 25
292 384 m 25xea
 417 384 l 25
 417 300 l 25xea
 292 300 l 25xec
 292 384 l 25xea
667 384 m 25xe880
 792 384 l 25
 792 300 l 25xe840
 667 300 l 25
 667 384 l 25xe880
167 300 m 25xcc
 292 300 l 25
 292 217 l 25
 167 217 l 25
 167 300 l 25xcc
292 300 m 25
 417 300 l 25
 417 217 l 25xca
 292 217 l 25
 292 300 l 25
417 300 m 25
 542 300 l 25
 542 217 l 25xc9
 417 217 l 25
 417 300 l 25
542 300 m 25
 667 300 l 25
 667 217 l 25xc880
 542 217 l 25
 542 300 l 25
667 300 m 25
 792 300 l 25
 792 217 l 25xc840
 667 217 l 25
 667 300 l 25
292 217 m 25xcc
 417 217 l 25
 417 134 l 25
 292 134 l 25xca
 292 217 l 25xcc
542 217 m 25xc9
 667 217 l 25
 667 134 l 25
 542 134 l 25xc880
 542 217 l 25xc9
292 134 m 25xca
 417 134 l 25
 417 50 l 25
 292 50 l 25
 292 134 l 25xca
542 134 m 25xc880
 667 134 l 25
 667 50 l 25
 542 50 l 25
 542 134 l 25xc880
EndSplineSet
EndChar

StartChar: dollar
Encoding: 36 36 4
Width: 1084
VWidth: 0
Flags: HW
HStem: 30 20G<542 667> 50 84<292 542 667 792> 134 166<792 917> 134 83<167 292> 300 84<417 542 667 792> 447 20G<292 417 542 667> 467 167<667 792> 550 84<417 542> 634 21G<542 667>
VStem: 167 125<134 217> 292 125<50 134 300 634> 417 125<50 134 300 384 550 634> 542 125<-33 717> 667 125<50 134 300 384 467 634> 792 125<134 300>
LayerCount: 2
Fore
SplineSet
542 717 m 25x0108
 667 717 l 25
 667 634 l 25x0208
 542 634 l 25x0110
 542 717 l 25x0108
292 634 m 25x00a0
 417 634 l 25
 417 550 l 25
 292 550 l 25x0120
 292 634 l 25x00a0
417 634 m 25
 542 634 l 25
 542 550 l 25x0110
 417 550 l 25
 417 634 l 25
542 634 m 25
 667 634 l 25x0208
 667 550 l 25x0108
 542 550 l 25
 542 634 l 25
667 634 m 25
 792 634 l 25x0204
 792 550 l 25x0104
 667 550 l 25x0108
 667 634 l 25
292 550 m 25x0520
 417 550 l 25
 417 467 l 25
 292 467 l 25
 292 550 l 25x0520
542 550 m 25x0510
 667 550 l 25
 667 467 l 25
 542 467 l 25x0508
 542 550 l 25x0510
667 550 m 25
 792 550 l 25x0504
 792 467 l 25x0204
 667 467 l 25
 667 550 l 25
292 467 m 25x0c20
 417 467 l 25
 417 384 l 25
 292 384 l 25
 292 467 l 25x0c20
542 467 m 25x0c08
 667 467 l 25
 667 384 l 25x0c08
 542 384 l 25x0c10
 542 467 l 25x0c08
292 384 m 25x0820
 417 384 l 25
 417 300 l 25
 292 300 l 25
 292 384 l 25x0820
417 384 m 25
 542 384 l 25
 542 300 l 25x0810
 417 300 l 25
 417 384 l 25
542 384 m 25
 667 384 l 25
 667 300 l 25x0808
 542 300 l 25
 542 384 l 25
667 384 m 25
 792 384 l 25x0804
 792 300 l 25x2004
 667 300 l 25
 667 384 l 25
542 300 m 25x1810
 667 300 l 25
 667 217 l 25
 542 217 l 25x1808
 542 300 l 25x1810
792 300 m 25x2004
 917 300 l 25x2002
 917 217 l 25
 792 217 l 25x1002
 792 300 l 25x2004
167 217 m 25x1040
 292 217 l 25x1040
 292 134 l 25x4040
 167 134 l 25
 167 217 l 25x1040
542 217 m 25x1008
 667 217 l 25x1008
 667 134 l 25x4008
 542 134 l 25x4010
 542 217 l 25x1008
792 217 m 25x1002
 917 217 l 25x1002
 917 134 l 25x2002
 792 134 l 25x4004
 792 217 l 25x1002
292 134 m 25x4040
 417 134 l 25
 417 50 l 25
 292 50 l 25x4020
 292 134 l 25x4040
417 134 m 25
 542 134 l 25x4010
 542 50 l 25x8010
 417 50 l 25
 417 134 l 25
542 134 m 25
 667 134 l 25x4008
 667 50 l 25x8008
 542 50 l 25x8010
 542 134 l 25
667 134 m 25
 792 134 l 25
 792 50 l 25x4004
 667 50 l 25x8008
 667 134 l 25
542 50 m 25x8010
 667 50 l 25
 667 -33 l 25
 542 -33 l 25x8008
 542 50 l 25x8010
EndSplineSet
EndChar

StartChar: percent
Encoding: 37 37 5
Width: 1084
VWidth: 0
Flags: HW
HStem: 50 167<292 417> 50 84<667 792> 217 83<417 542 667 792> 384 83<292 417> 467 167<667 792> 550 84<292 417>
VStem: 167 125<384 634> 292 125<50 217 384 467 550 634> 417 125<217 300 384 634> 542 125<50 467> 667 125<50 134 217 300 467 634> 792 125<50 300>
LayerCount: 2
Fore
SplineSet
167 634 m 25x06
 292 634 l 25
 292 550 l 25
 167 550 l 25
 167 634 l 25x06
292 634 m 25
 417 634 l 25
 417 550 l 25x05
 292 550 l 25
 292 634 l 25
417 634 m 25
 542 634 l 25
 542 550 l 25x0480
 417 550 l 25
 417 634 l 25
667 634 m 25x0820
 792 634 l 25x0820
 792 550 l 25
 667 550 l 25x0420
 667 634 l 25x0820
167 550 m 25x06
 292 550 l 25
 292 467 l 25x16
 167 467 l 25x0a
 167 550 l 25x06
417 550 m 25x15
 542 550 l 25x1480
 542 467 l 25x0880
 417 467 l 25
 417 550 l 25x15
667 550 m 25x0420
 792 550 l 25x0420
 792 467 l 25x0820
 667 467 l 25x0840
 667 550 l 25x0420
167 467 m 25x0a
 292 467 l 25
 292 384 l 25
 167 384 l 25x12
 167 467 l 25x0a
292 467 m 25
 417 467 l 25
 417 384 l 25x11
 292 384 l 25
 292 467 l 25
417 467 m 25
 542 467 l 25x0880
 542 384 l 25x1080
 417 384 l 25
 417 467 l 25
542 467 m 25
 667 467 l 25x0840
 667 384 l 25x1040
 542 384 l 25x1080
 542 467 l 25
542 384 m 25x3080
 667 384 l 25
 667 300 l 25x3040
 542 300 l 25
 542 384 l 25x3080
417 300 m 25x2080
 542 300 l 25
 542 217 l 25x2080
 417 217 l 25x81
 417 300 l 25x2080
542 300 m 25
 667 300 l 25
 667 217 l 25x2040
 542 217 l 25
 542 300 l 25
667 300 m 25
 792 300 l 25
 792 217 l 25x2020
 667 217 l 25
 667 300 l 25
792 300 m 25
 917 300 l 25
 917 217 l 25x2010
 792 217 l 25
 792 300 l 25
292 217 m 25x81
 417 217 l 25x81
 417 134 l 25
 292 134 l 25x41
 292 217 l 25x81
542 217 m 25x6080
 667 217 l 25
 667 134 l 25
 542 134 l 25x6040
 542 217 l 25x6080
792 217 m 25x6020
 917 217 l 25
 917 134 l 25x6010
 792 134 l 25
 792 217 l 25x6020
292 134 m 25x41
 417 134 l 25x41
 417 50 l 25
 292 50 l 25x81
 292 134 l 25x41
542 134 m 25x4040
 667 134 l 25
 667 50 l 25
 542 50 l 25
 542 134 l 25x4040
667 134 m 25
 792 134 l 25
 792 50 l 25x4020
 667 50 l 25
 667 134 l 25
792 134 m 25
 917 134 l 25
 917 50 l 25x4010
 792 50 l 25
 792 134 l 25
EndSplineSet
EndChar

StartChar: ampersand
Encoding: 38 38 6
Width: 1084
VWidth: 0
Flags: HW
HStem: 50 167<542 667> 50 84<292 542 792 917> 134 166<167 292> 217 167<417 542> 384 83<542 667> 467 83<667 792> 550 84<417 667>
VStem: 167 125<134 300> 292 125<50 134 300 550> 417 125<50 134 217 384 550 634> 542 125<50 217 384 467 550 634> 667 125<50 384 467 550> 792 125<50 134>
LayerCount: 2
Fore
SplineSet
417 634 m 25x0240
 542 634 l 25
 542 550 l 25x0240
 417 550 l 25x0280
 417 634 l 25x0240
542 634 m 25
 667 634 l 25x0220
 667 550 l 25x0420
 542 550 l 25
 542 634 l 25
292 550 m 25x0280
 417 550 l 25x0280
 417 467 l 25
 292 467 l 25x0480
 292 550 l 25x0280
667 550 m 25x0420
 792 550 l 25
 792 467 l 25x0410
 667 467 l 25x0820
 667 550 l 25x0420
292 467 m 25x0480
 417 467 l 25
 417 384 l 25x1480
 292 384 l 25x0880
 292 467 l 25x0480
542 467 m 25x0820
 667 467 l 25
 667 384 l 25x0820
 542 384 l 25x1040
 542 467 l 25x0820
292 384 m 25x2880
 417 384 l 25x1080
 417 300 l 25x2080
 292 300 l 25x21
 292 384 l 25x2880
417 384 m 25
 542 384 l 25x1040
 542 300 l 25x2040
 417 300 l 25x2080
 417 384 l 25
667 384 m 25x2820
 792 384 l 25
 792 300 l 25
 667 300 l 25x2810
 667 384 l 25x2820
167 300 m 25x21
 292 300 l 25x21
 292 217 l 25
 167 217 l 25x11
 167 300 l 25x21
417 300 m 25x2080
 542 300 l 25x2040
 542 217 l 25x8040
 417 217 l 25x1040
 417 300 l 25x2080
667 300 m 25x2010
 792 300 l 25x2010
 792 217 l 25x1010
 667 217 l 25x8020
 667 300 l 25x2010
167 217 m 25x11
 292 217 l 25
 292 134 l 25x51
 167 134 l 25x21
 167 217 l 25x11
542 217 m 25x8040
 667 217 l 25x8020
 667 134 l 25x2020
 542 134 l 25x4040
 542 217 l 25x8040
667 217 m 25
 792 217 l 25
 792 134 l 25x5010
 667 134 l 25x2020
 667 217 l 25
292 134 m 25x41
 417 134 l 25
 417 50 l 25
 292 50 l 25x4080
 292 134 l 25x41
417 134 m 25
 542 134 l 25x4040
 542 50 l 25x8040
 417 50 l 25
 417 134 l 25
542 134 m 25
 667 134 l 25x2020
 667 50 l 25x8020
 542 50 l 25x8040
 542 134 l 25
667 134 m 25
 792 134 l 25
 792 50 l 25x4010
 667 50 l 25x8020
 667 134 l 25
792 134 m 25
 917 134 l 25
 917 50 l 25x4008
 792 50 l 25
 792 134 l 25
EndSplineSet
EndChar

StartChar: quotesingle
Encoding: 39 39 7
Width: 584
VWidth: 0
Flags: HW
HStem: 447 20G<167 292> 467 21G<167 292> 550 84<292 417>
VStem: 167 125<384 634> 292 125<550 634>
LayerCount: 2
Fore
SplineSet
167 634 m 25x30
 292 634 l 25
 292 550 l 25
 167 550 l 25
 167 634 l 25x30
292 634 m 25
 417 634 l 25
 417 550 l 25x28
 292 550 l 25
 292 634 l 25
167 550 m 25xb0
 292 550 l 25
 292 467 l 25
 167 467 l 25
 167 550 l 25xb0
167 467 m 25
 292 467 l 25
 292 384 l 25
 167 384 l 25
 167 467 l 25
EndSplineSet
EndChar

StartChar: parenleft
Encoding: 40 40 8
Width: 584
VWidth: 0
Flags: HW
HStem: -116 83<292 417> 30 20G<167 292> 50 21G<167 292> 447 20G<167 292> 467 21G<167 292> 550 84<292 417>
VStem: 167 125<-33 550> 292 125<-116 -33 550 634>
LayerCount: 2
Fore
SplineSet
292 634 m 25x85
 417 634 l 25
 417 550 l 25x85
 292 550 l 25x86
 292 634 l 25x85
167 550 m 25x96
 292 550 l 25
 292 467 l 25
 167 467 l 25
 167 550 l 25x96
167 467 m 25
 292 467 l 25
 292 384 l 25
 167 384 l 25
 167 467 l 25
167 384 m 25
 292 384 l 25
 292 300 l 25
 167 300 l 25
 167 384 l 25
167 300 m 25
 292 300 l 25
 292 217 l 25
 167 217 l 25
 167 300 l 25
167 217 m 25
 292 217 l 25
 292 134 l 25
 167 134 l 25
 167 217 l 25
167 134 m 25
 292 134 l 25
 292 50 l 25
 167 50 l 25xc6
 167 134 l 25
167 50 m 25
 292 50 l 25
 292 -33 l 25
 167 -33 l 25
 167 50 l 25
292 -33 m 25
 417 -33 l 25
 417 -116 l 25
 292 -116 l 25x85
 292 -33 l 25
EndSplineSet
EndChar

StartChar: parenright
Encoding: 41 41 9
Width: 584
VWidth: 0
Flags: HW
HStem: -116 83<167 292> 30 20G<292 417> 50 21G<292 417> 447 20G<292 417> 467 21G<292 417> 550 84<167 292>
VStem: 167 125<-116 -33 550 634> 292 125<-33 550>
LayerCount: 2
Fore
SplineSet
167 634 m 25x86
 292 634 l 25
 292 550 l 25
 167 550 l 25
 167 634 l 25x86
292 550 m 25
 417 550 l 25
 417 467 l 25
 292 467 l 25x95
 292 550 l 25
292 467 m 25
 417 467 l 25
 417 384 l 25
 292 384 l 25
 292 467 l 25
292 384 m 25
 417 384 l 25
 417 300 l 25
 292 300 l 25
 292 384 l 25
292 300 m 25
 417 300 l 25
 417 217 l 25
 292 217 l 25
 292 300 l 25
292 217 m 25
 417 217 l 25
 417 134 l 25
 292 134 l 25
 292 217 l 25
292 134 m 25
 417 134 l 25
 417 50 l 25
 292 50 l 25xc5
 292 134 l 25
292 50 m 25
 417 50 l 25
 417 -33 l 25xc5
 292 -33 l 25xc6
 292 50 l 25
167 -33 m 25x86
 292 -33 l 25
 292 -116 l 25
 167 -116 l 25
 167 -33 l 25x86
EndSplineSet
EndChar

StartChar: asterisk
Encoding: 42 42 10
Width: 834
VWidth: 0
Flags: HW
HStem: 300 167<292 417> 467 83<167 292 542 667> 614 20G<417 542>
VStem: 167 125<467 550> 292 125<300 467> 417 125<300 634> 542 125<467 550>
LayerCount: 2
Fore
SplineSet
417 634 m 25x64
 542 634 l 25
 542 550 l 25
 417 550 l 25
 417 634 l 25x64
167 550 m 25x70
 292 550 l 25x70
 292 467 l 25xb0
 167 467 l 25
 167 550 l 25x70
417 550 m 25x64
 542 550 l 25
 542 467 l 25x64
 417 467 l 25xa8
 417 550 l 25x64
542 550 m 25
 667 550 l 25
 667 467 l 25x62
 542 467 l 25
 542 550 l 25
292 467 m 25xb0
 417 467 l 25
 417 384 l 25
 292 384 l 25xa8
 292 467 l 25xb0
417 467 m 25
 542 467 l 25
 542 384 l 25x64
 417 384 l 25
 417 467 l 25
292 384 m 25xa8
 417 384 l 25
 417 300 l 25
 292 300 l 25
 292 384 l 25xa8
417 384 m 25
 542 384 l 25
 542 300 l 25xa4
 417 300 l 25
 417 384 l 25
EndSplineSet
EndChar

StartChar: plus
Encoding: 43 43 11
Width: 834
VWidth: 0
Flags: HW
HStem: 300 84<167 292 417 667> 447 20G<292 417> 467 21G<292 417>
VStem: 167 125<300 384> 292 125<134 550> 417 125<300 384> 542 125<300 384>
LayerCount: 2
Fore
SplineSet
292 550 m 25xc8
 417 550 l 25
 417 467 l 25
 292 467 l 25
 292 550 l 25xc8
292 467 m 25
 417 467 l 25
 417 384 l 25xc8
 292 384 l 25xd0
 292 467 l 25
167 384 m 25x90
 292 384 l 25
 292 300 l 25
 167 300 l 25
 167 384 l 25x90
292 384 m 25
 417 384 l 25
 417 300 l 25x88
 292 300 l 25
 292 384 l 25
417 384 m 25
 542 384 l 25
 542 300 l 25x84
 417 300 l 25
 417 384 l 25
542 384 m 25
 667 384 l 25
 667 300 l 25x82
 542 300 l 25
 542 384 l 25
292 300 m 25x90
 417 300 l 25
 417 217 l 25
 292 217 l 25x88
 292 300 l 25x90
292 217 m 25
 417 217 l 25
 417 134 l 25
 292 134 l 25
 292 217 l 25
EndSplineSet
EndChar

StartChar: comma
Encoding: 44 44 12
Width: 584
VWidth: 0
Flags: HW
HStem: -116 83<167 292> -33 167<292 417> 30 20G<292 417> 50 21G<292 417>
VStem: 167 125<-116 -33> 292 125<-33 134>
LayerCount: 2
Fore
SplineSet
292 134 m 25x44
 417 134 l 25x44
 417 50 l 25
 292 50 l 25x24
 292 134 l 25x44
292 50 m 25xa4
 417 50 l 25xa4
 417 -33 l 25x44
 292 -33 l 25x88
 292 50 l 25xa4
167 -33 m 25x88
 292 -33 l 25
 292 -116 l 25
 167 -116 l 25
 167 -33 l 25x88
EndSplineSet
EndChar

StartChar: hyphen
Encoding: 45 45 13
Width: 584
VWidth: 0
Flags: HW
HStem: 217 83<167 417>
VStem: 167 125<217 300> 292 125<217 300>
LayerCount: 2
Fore
SplineSet
167 300 m 25xc0
 292 300 l 25
 292 217 l 25
 167 217 l 25
 167 300 l 25xc0
292 300 m 25
 417 300 l 25
 417 217 l 25xa0
 292 217 l 25
 292 300 l 25
EndSplineSet
EndChar

StartChar: period
Encoding: 46 46 14
Width: 584
VWidth: 0
Flags: HW
HStem: 50 84<167 417>
VStem: 167 125<50 134> 292 125<50 134>
LayerCount: 2
Fore
SplineSet
167 134 m 25xc0
 292 134 l 25
 292 50 l 25
 167 50 l 25
 167 134 l 25xc0
292 134 m 25
 417 134 l 25
 417 50 l 25xa0
 292 50 l 25
 292 134 l 25
EndSplineSet
EndChar

StartChar: slash
Encoding: 47 47 15
Width: 834
VWidth: 0
Flags: HW
HStem: 50 167<167 292> 217 83<292 417> 300 167<417 542> 467 167<542 667>
VStem: 167 125<50 217> 292 125<217 300> 417 125<300 467> 542 125<467 634>
LayerCount: 2
Fore
SplineSet
542 634 m 25x11
 667 634 l 25
 667 550 l 25
 542 550 l 25
 542 634 l 25x11
542 550 m 25
 667 550 l 25
 667 467 l 25x11
 542 467 l 25x22
 542 550 l 25
417 467 m 25x22
 542 467 l 25
 542 384 l 25
 417 384 l 25
 417 467 l 25x22
417 384 m 25
 542 384 l 25
 542 300 l 25x22
 417 300 l 25x44
 417 384 l 25
292 300 m 25x44
 417 300 l 25
 417 217 l 25x44
 292 217 l 25x88
 292 300 l 25x44
167 217 m 25x88
 292 217 l 25
 292 134 l 25
 167 134 l 25
 167 217 l 25x88
167 134 m 25
 292 134 l 25
 292 50 l 25
 167 50 l 25
 167 134 l 25
EndSplineSet
EndChar

StartChar: zero
Encoding: 48 48 16
Width: 834
VWidth: 0
Flags: HW
HStem: 50 84<292 542> 300 84<292 542> 447 20G<167 292 542 667> 467 21G<167 292 542 667> 550 84<292 542>
VStem: 167 125<134 550> 292 125<50 134 300 384 550 634> 417 125<50 134 300 384 550 634> 542 125<134 550>
LayerCount: 2
Fore
SplineSet
292 634 m 25xca
 417 634 l 25
 417 550 l 25xca
 292 550 l 25xcc
 292 634 l 25xca
417 634 m 25
 542 634 l 25
 542 550 l 25xc9
 417 550 l 25
 417 634 l 25
167 550 m 25xec
 292 550 l 25
 292 467 l 25
 167 467 l 25
 167 550 l 25xec
542 550 m 25xe9
 667 550 l 25
 667 467 l 25
 542 467 l 25xe880
 542 550 l 25xe9
167 467 m 25xec
 292 467 l 25
 292 384 l 25
 167 384 l 25
 167 467 l 25xec
542 467 m 25xe880
 667 467 l 25
 667 384 l 25xe880
 542 384 l 25xe9
 542 467 l 25xe880
167 384 m 25xcc
 292 384 l 25
 292 300 l 25
 167 300 l 25
 167 384 l 25xcc
292 384 m 25
 417 384 l 25
 417 300 l 25xca
 292 300 l 25
 292 384 l 25
417 384 m 25
 542 384 l 25
 542 300 l 25xc9
 417 300 l 25
 417 384 l 25
542 384 m 25
 667 384 l 25
 667 300 l 25xc880
 542 300 l 25
 542 384 l 25
167 300 m 25xcc
 292 300 l 25
 292 217 l 25
 167 217 l 25
 167 300 l 25xcc
542 300 m 25xc9
 667 300 l 25
 667 217 l 25
 542 217 l 25xc880
 542 300 l 25xc9
167 217 m 25xcc
 292 217 l 25
 292 134 l 25
 167 134 l 25
 167 217 l 25xcc
542 217 m 25xc880
 667 217 l 25
 667 134 l 25xc880
 542 134 l 25xc9
 542 217 l 25xc880
292 134 m 25xcc
 417 134 l 25
 417 50 l 25
 292 50 l 25xca
 292 134 l 25xcc
417 134 m 25
 542 134 l 25
 542 50 l 25xc9
 417 50 l 25
 417 134 l 25
EndSplineSet
EndChar

StartChar: one
Encoding: 49 49 17
Width: 959
VWidth: 0
Flags: HW
HStem: 50 84<167 417 542 792> 447 20G<417 542> 467 83<167 292> 550 84<292 417>
VStem: 167 125<50 134 467 550> 292 125<50 134 550 634> 417 125<50 634> 542 125<50 134> 667 125<50 134>
LayerCount: 2
Fore
SplineSet
292 634 m 25x94
 417 634 l 25
 417 550 l 25x94
 292 550 l 25xa8
 292 634 l 25x94
417 634 m 25
 542 634 l 25
 542 550 l 25x92
 417 550 l 25
 417 634 l 25
167 550 m 25xa8
 292 550 l 25
 292 467 l 25
 167 467 l 25
 167 550 l 25xa8
417 550 m 25xd4
 542 550 l 25
 542 467 l 25
 417 467 l 25xd2
 417 550 l 25xd4
417 467 m 25
 542 467 l 25
 542 384 l 25
 417 384 l 25
 417 467 l 25
417 384 m 25
 542 384 l 25
 542 300 l 25
 417 300 l 25
 417 384 l 25
417 300 m 25
 542 300 l 25
 542 217 l 25
 417 217 l 25
 417 300 l 25
417 217 m 25
 542 217 l 25
 542 134 l 25x82
 417 134 l 25x84
 417 217 l 25
167 134 m 25x88
 292 134 l 25
 292 50 l 25
 167 50 l 25
 167 134 l 25x88
292 134 m 25
 417 134 l 25
 417 50 l 25x84
 292 50 l 25
 292 134 l 25
417 134 m 25
 542 134 l 25
 542 50 l 25x82
 417 50 l 25
 417 134 l 25
542 134 m 25
 667 134 l 25
 667 50 l 25x81
 542 50 l 25
 542 134 l 25
667 134 m 25
 792 134 l 25
 792 50 l 25x8080
 667 50 l 25
 667 134 l 25
EndSplineSet
EndChar

StartChar: two
Encoding: 50 50 18
Width: 834
VWidth: 0
Flags: HW
HStem: 50 167<167 292> 50 84<292 667> 217 83<292 417> 300 84<417 542> 447 20G<542 667> 467 167<167 292> 550 84<292 542>
VStem: 167 125<50 217 467 634> 292 125<50 134 217 300 550 634> 417 125<50 134 300 384 550 634> 542 125<50 134 384 634>
LayerCount: 2
Fore
SplineSet
167 634 m 25x05
 292 634 l 25x05
 292 550 l 25
 167 550 l 25x03
 167 634 l 25x05
292 634 m 25
 417 634 l 25
 417 550 l 25x0280
 292 550 l 25x03
 292 634 l 25
417 634 m 25
 542 634 l 25
 542 550 l 25x0240
 417 550 l 25
 417 634 l 25
542 634 m 25
 667 634 l 25
 667 550 l 25x0220
 542 550 l 25
 542 634 l 25
167 550 m 25x03
 292 550 l 25x03
 292 467 l 25
 167 467 l 25x05
 167 550 l 25x03
542 550 m 25x0a40
 667 550 l 25
 667 467 l 25
 542 467 l 25x0a20
 542 550 l 25x0a40
542 467 m 25
 667 467 l 25
 667 384 l 25x1820
 542 384 l 25x1840
 542 467 l 25
417 384 m 25x1040
 542 384 l 25
 542 300 l 25x1040
 417 300 l 25x2080
 417 384 l 25x1040
292 300 m 25x2080
 417 300 l 25
 417 217 l 25x2080
 292 217 l 25x81
 292 300 l 25x2080
167 217 m 25x81
 292 217 l 25x81
 292 134 l 25
 167 134 l 25x41
 167 217 l 25x81
167 134 m 25x41
 292 134 l 25x41
 292 50 l 25
 167 50 l 25x81
 167 134 l 25x41
292 134 m 25
 417 134 l 25
 417 50 l 25x4080
 292 50 l 25x81
 292 134 l 25
417 134 m 25
 542 134 l 25
 542 50 l 25x4040
 417 50 l 25
 417 134 l 25
542 134 m 25
 667 134 l 25
 667 50 l 25x4020
 542 50 l 25
 542 134 l 25
EndSplineSet
EndChar

StartChar: three
Encoding: 51 51 19
Width: 834
VWidth: 0
Flags: HW
HStem: 50 167<167 292> 50 84<292 542> 300 84<292 542> 447 20G<542 667> 467 167<167 292> 550 84<292 542>
VStem: 167 125<50 217 467 634> 292 125<50 134 300 384 550 634> 417 125<50 134 300 384 550 634> 542 125<50 300 384 634>
LayerCount: 2
Fore
SplineSet
167 634 m 25x2a
 292 634 l 25x2a
 292 550 l 25
 167 550 l 25x26
 167 634 l 25x2a
292 634 m 25
 417 634 l 25
 417 550 l 25x25
 292 550 l 25x26
 292 634 l 25
417 634 m 25
 542 634 l 25
 542 550 l 25x2480
 417 550 l 25
 417 634 l 25
542 634 m 25
 667 634 l 25
 667 550 l 25x2440
 542 550 l 25
 542 634 l 25
167 550 m 25x26
 292 550 l 25x26
 292 467 l 25
 167 467 l 25x2a
 167 550 l 25x26
542 550 m 25x3480
 667 550 l 25
 667 467 l 25
 542 467 l 25x3440
 542 550 l 25x3480
542 467 m 25
 667 467 l 25
 667 384 l 25x3040
 542 384 l 25x3080
 542 467 l 25
292 384 m 25x21
 417 384 l 25
 417 300 l 25
 292 300 l 25
 292 384 l 25x21
417 384 m 25
 542 384 l 25
 542 300 l 25x2080
 417 300 l 25
 417 384 l 25
542 300 m 25
 667 300 l 25
 667 217 l 25
 542 217 l 25xa040
 542 300 l 25
167 217 m 25xa2
 292 217 l 25xa2
 292 134 l 25
 167 134 l 25x62
 167 217 l 25xa2
542 217 m 25xa040
 667 217 l 25xa040
 667 134 l 25x6040
 542 134 l 25x6080
 542 217 l 25xa040
167 134 m 25x62
 292 134 l 25x62
 292 50 l 25
 167 50 l 25xa2
 167 134 l 25x62
292 134 m 25
 417 134 l 25
 417 50 l 25x61
 292 50 l 25xa2
 292 134 l 25
417 134 m 25
 542 134 l 25
 542 50 l 25x6080
 417 50 l 25
 417 134 l 25
542 134 m 25
 667 134 l 25
 667 50 l 25x6040
 542 50 l 25
 542 134 l 25
EndSplineSet
EndChar

StartChar: four
Encoding: 52 52 20
Width: 1084
VWidth: 0
Flags: HW
HStem: 50 21G<667 792> 217 167<292 417> 217 83<167 292 417 667 792 917> 384 166<417 542> 447 20G<417 542 667 792> 467 21G<417 542 667 792> 550 84<542 667>
VStem: 167 125<217 300> 292 125<217 384> 417 125<217 300 384 550> 542 125<217 300 550 634> 667 125<50 634> 792 125<217 300>
LayerCount: 2
Fore
SplineSet
542 634 m 25x8220
 667 634 l 25
 667 550 l 25x8220
 542 550 l 25x9040
 542 634 l 25x8220
667 634 m 25
 792 634 l 25
 792 550 l 25x8210
 667 550 l 25
 667 634 l 25
417 550 m 25x9040
 542 550 l 25x9040
 542 467 l 25
 417 467 l 25x8840
 417 550 l 25x9040
667 550 m 25x8a20
 792 550 l 25
 792 467 l 25
 667 467 l 25x8a10
 667 550 l 25x8a20
417 467 m 25xc840
 542 467 l 25xc840
 542 384 l 25x9040
 417 384 l 25xc080
 417 467 l 25xc840
667 467 m 25x8810
 792 467 l 25x8810
 792 384 l 25
 667 384 l 25x9010
 667 467 l 25x8810
292 384 m 25xc080
 417 384 l 25xc080
 417 300 l 25xa080
 292 300 l 25xa1
 292 384 l 25xc080
667 384 m 25xb010
 792 384 l 25
 792 300 l 25xb010
 667 300 l 25xb020
 667 384 l 25xb010
167 300 m 25xa1
 292 300 l 25xa1
 292 217 l 25xc1
 167 217 l 25
 167 300 l 25xa1
292 300 m 25
 417 300 l 25xa080
 417 217 l 25xc080
 292 217 l 25xc1
 292 300 l 25
417 300 m 25
 542 300 l 25
 542 217 l 25xa040
 417 217 l 25xc080
 417 300 l 25
542 300 m 25
 667 300 l 25
 667 217 l 25xa020
 542 217 l 25
 542 300 l 25
667 300 m 25
 792 300 l 25
 792 217 l 25xa010
 667 217 l 25
 667 300 l 25
792 300 m 25
 917 300 l 25
 917 217 l 25xa008
 792 217 l 25
 792 300 l 25
667 217 m 25xa020
 792 217 l 25
 792 134 l 25
 667 134 l 25xa010
 667 217 l 25xa020
667 134 m 25
 792 134 l 25
 792 50 l 25
 667 50 l 25
 667 134 l 25
EndSplineSet
EndChar

StartChar: five
Encoding: 53 53 21
Width: 834
VWidth: 0
Flags: HW
HStem: 50 167<167 292> 50 84<292 542> 384 83<292 542> 467 21G<167 292> 550 84<292 667>
VStem: 167 125<50 217 384 634> 292 125<50 134 384 467 550 634> 417 125<50 134 384 467 550 634> 542 125<134 467 550 634>
LayerCount: 2
Fore
SplineSet
167 634 m 25x0c
 292 634 l 25
 292 550 l 25
 167 550 l 25
 167 634 l 25x0c
292 634 m 25
 417 634 l 25
 417 550 l 25x0a
 292 550 l 25
 292 634 l 25
417 634 m 25
 542 634 l 25
 542 550 l 25x09
 417 550 l 25
 417 634 l 25
542 634 m 25
 667 634 l 25
 667 550 l 25x0880
 542 550 l 25
 542 634 l 25
167 550 m 25x1c
 292 550 l 25
 292 467 l 25x2c
 167 467 l 25
 167 550 l 25x1c
167 467 m 25x1c
 292 467 l 25
 292 384 l 25
 167 384 l 25x2c
 167 467 l 25x1c
292 467 m 25
 417 467 l 25
 417 384 l 25x2a
 292 384 l 25
 292 467 l 25
417 467 m 25
 542 467 l 25
 542 384 l 25x29
 417 384 l 25
 417 467 l 25
542 467 m 25
 667 467 l 25x1880
 667 384 l 25x2880
 542 384 l 25
 542 467 l 25
542 384 m 25x29
 667 384 l 25
 667 300 l 25
 542 300 l 25x2880
 542 384 l 25x29
542 300 m 25
 667 300 l 25
 667 217 l 25
 542 217 l 25x8880
 542 300 l 25
167 217 m 25x8c
 292 217 l 25x8c
 292 134 l 25
 167 134 l 25x4c
 167 217 l 25x8c
542 217 m 25x8880
 667 217 l 25x8880
 667 134 l 25x4880
 542 134 l 25x49
 542 217 l 25x8880
167 134 m 25x4c
 292 134 l 25x4c
 292 50 l 25
 167 50 l 25x8c
 167 134 l 25x4c
292 134 m 25
 417 134 l 25
 417 50 l 25x4a
 292 50 l 25x8c
 292 134 l 25
417 134 m 25
 542 134 l 25
 542 50 l 25x49
 417 50 l 25
 417 134 l 25
EndSplineSet
EndChar

StartChar: six
Encoding: 54 54 22
Width: 834
VWidth: 0
Flags: HW
HStem: 50 84<292 542> 300 84<292 542> 447 20G<167 292> 467 83<542 667> 550 84<292 542>
VStem: 167 125<134 550> 292 125<50 134 300 384 550 634> 417 125<50 134 300 384 550 634> 542 125<50 384 467 550>
LayerCount: 2
Fore
SplineSet
292 634 m 25xca
 417 634 l 25
 417 550 l 25xca
 292 550 l 25xcc
 292 634 l 25xca
417 634 m 25
 542 634 l 25xc9
 542 550 l 25xd1
 417 550 l 25
 417 634 l 25
167 550 m 25xec
 292 550 l 25
 292 467 l 25
 167 467 l 25
 167 550 l 25xec
542 550 m 25xd1
 667 550 l 25
 667 467 l 25
 542 467 l 25xd080
 542 550 l 25xd1
167 467 m 25xe4
 292 467 l 25
 292 384 l 25
 167 384 l 25
 167 467 l 25xe4
167 384 m 25
 292 384 l 25
 292 300 l 25
 167 300 l 25
 167 384 l 25
292 384 m 25
 417 384 l 25
 417 300 l 25xc2
 292 300 l 25
 292 384 l 25
417 384 m 25
 542 384 l 25
 542 300 l 25xc1
 417 300 l 25
 417 384 l 25
542 384 m 25
 667 384 l 25
 667 300 l 25xc080
 542 300 l 25
 542 384 l 25
167 300 m 25xc4
 292 300 l 25
 292 217 l 25
 167 217 l 25
 167 300 l 25xc4
542 300 m 25xc1
 667 300 l 25
 667 217 l 25
 542 217 l 25xc080
 542 300 l 25xc1
167 217 m 25xc4
 292 217 l 25
 292 134 l 25
 167 134 l 25
 167 217 l 25xc4
542 217 m 25xc080
 667 217 l 25
 667 134 l 25xc080
 542 134 l 25xc1
 542 217 l 25xc080
292 134 m 25xc4
 417 134 l 25
 417 50 l 25
 292 50 l 25xc2
 292 134 l 25xc4
417 134 m 25
 542 134 l 25
 542 50 l 25xc1
 417 50 l 25
 417 134 l 25
542 134 m 25
 667 134 l 25
 667 50 l 25xc080
 542 50 l 25
 542 134 l 25
EndSplineSet
EndChar

StartChar: seven
Encoding: 55 55 23
Width: 834
VWidth: 0
Flags: HW
HStem: 50 21G<292 417> 300 167<417 542> 467 167<542 667> 550 84<167 542>
VStem: 167 125<550 634> 292 125<50 300 550 634> 417 125<300 467 550 634> 542 125<467 634>
LayerCount: 2
Fore
SplineSet
167 634 m 25x98
 292 634 l 25
 292 550 l 25
 167 550 l 25
 167 634 l 25x98
292 634 m 25
 417 634 l 25
 417 550 l 25x94
 292 550 l 25
 292 634 l 25
417 634 m 25
 542 634 l 25xa2
 542 550 l 25x92
 417 550 l 25
 417 634 l 25
542 634 m 25
 667 634 l 25xa1
 667 550 l 25x91
 542 550 l 25x92
 542 634 l 25
542 550 m 25xd2
 667 550 l 25xd1
 667 467 l 25xa1
 542 467 l 25
 542 550 l 25xd2
417 467 m 25xc2
 542 467 l 25
 542 384 l 25
 417 384 l 25
 417 467 l 25xc2
417 384 m 25
 542 384 l 25
 542 300 l 25xc2
 417 300 l 25xc4
 417 384 l 25
292 300 m 25xc4
 417 300 l 25
 417 217 l 25
 292 217 l 25
 292 300 l 25xc4
292 217 m 25
 417 217 l 25
 417 134 l 25
 292 134 l 25
 292 217 l 25
292 134 m 25
 417 134 l 25
 417 50 l 25
 292 50 l 25
 292 134 l 25
EndSplineSet
EndChar

StartChar: eight
Encoding: 56 56 24
Width: 834
VWidth: 0
Flags: HW
HStem: 50 250<167 292 542 667> 50 84<292 542> 300 84<292 542> 384 250<167 292 542 667> 447 20G<167 292 542 667> 467 21G<167 292 542 667> 550 84<292 542>
VStem: 167 125<50 300 384 634> 292 125<50 134 300 384 550 634> 417 125<50 134 300 384 550 634> 542 125<50 300 384 634>
LayerCount: 2
Fore
SplineSet
167 634 m 25x11
 292 634 l 25x11
 292 550 l 25
 167 550 l 25x03
 167 634 l 25x11
292 634 m 25
 417 634 l 25
 417 550 l 25x0280
 292 550 l 25x03
 292 634 l 25
417 634 m 25
 542 634 l 25x1040
 542 550 l 25x0240
 417 550 l 25
 417 634 l 25
542 634 m 25
 667 634 l 25x1020
 667 550 l 25x0220
 542 550 l 25x0240
 542 634 l 25
167 550 m 25x0b
 292 550 l 25
 292 467 l 25
 167 467 l 25
 167 550 l 25x0b
542 550 m 25x0a40
 667 550 l 25
 667 467 l 25
 542 467 l 25x0a20
 542 550 l 25x0a40
167 467 m 25x09
 292 467 l 25
 292 384 l 25x29
 167 384 l 25x11
 167 467 l 25x09
542 467 m 25x2820
 667 467 l 25x2820
 667 384 l 25x1020
 542 384 l 25x2040
 542 467 l 25x2820
292 384 m 25x21
 417 384 l 25
 417 300 l 25x2080
 292 300 l 25x81
 292 384 l 25x21
417 384 m 25
 542 384 l 25x2040
 542 300 l 25x8040
 417 300 l 25
 417 384 l 25
167 300 m 25x81
 292 300 l 25
 292 217 l 25
 167 217 l 25
 167 300 l 25x81
542 300 m 25x8040
 667 300 l 25
 667 217 l 25
 542 217 l 25x8020
 542 300 l 25x8040
167 217 m 25x41
 292 217 l 25
 292 134 l 25
 167 134 l 25
 167 217 l 25x41
542 217 m 25x4020
 667 217 l 25
 667 134 l 25x4020
 542 134 l 25x4040
 542 217 l 25x4020
167 134 m 25x41
 292 134 l 25x41
 292 50 l 25
 167 50 l 25x81
 167 134 l 25x41
292 134 m 25
 417 134 l 25
 417 50 l 25x4080
 292 50 l 25x81
 292 134 l 25
417 134 m 25
 542 134 l 25x4040
 542 50 l 25x8040
 417 50 l 25
 417 134 l 25
542 134 m 25
 667 134 l 25x4020
 667 50 l 25x8020
 542 50 l 25x8040
 542 134 l 25
EndSplineSet
EndChar

StartChar: nine
Encoding: 57 57 25
Width: 834
VWidth: 0
Flags: HW
HStem: 50 167<167 292> 50 84<292 542> 300 84<292 542> 447 20G<167 292 542 667> 467 21G<167 292 542 667> 550 84<292 542>
VStem: 167 125<50 217 300 634> 292 125<50 134 300 384 550 634> 417 125<50 134 300 384 550 634> 542 125<134 550>
LayerCount: 2
Fore
SplineSet
167 634 m 25x26
 292 634 l 25
 292 550 l 25
 167 550 l 25
 167 634 l 25x26
292 634 m 25
 417 634 l 25
 417 550 l 25x25
 292 550 l 25
 292 634 l 25
417 634 m 25
 542 634 l 25
 542 550 l 25x2480
 417 550 l 25
 417 634 l 25
167 550 m 25x36
 292 550 l 25
 292 467 l 25
 167 467 l 25
 167 550 l 25x36
542 550 m 25x3480
 667 550 l 25
 667 467 l 25
 542 467 l 25x3440
 542 550 l 25x3480
167 467 m 25x36
 292 467 l 25
 292 384 l 25
 167 384 l 25
 167 467 l 25x36
542 467 m 25x3440
 667 467 l 25
 667 384 l 25x3440
 542 384 l 25x3480
 542 467 l 25x3440
167 384 m 25x26
 292 384 l 25
 292 300 l 25
 167 300 l 25
 167 384 l 25x26
292 384 m 25
 417 384 l 25
 417 300 l 25x25
 292 300 l 25
 292 384 l 25
417 384 m 25
 542 384 l 25
 542 300 l 25x2480
 417 300 l 25
 417 384 l 25
542 384 m 25
 667 384 l 25
 667 300 l 25x2440
 542 300 l 25
 542 384 l 25
542 300 m 25xa480
 667 300 l 25
 667 217 l 25
 542 217 l 25xa440
 542 300 l 25xa480
167 217 m 25xa6
 292 217 l 25xa6
 292 134 l 25
 167 134 l 25x66
 167 217 l 25xa6
542 217 m 25xa440
 667 217 l 25xa440
 667 134 l 25x6440
 542 134 l 25x6480
 542 217 l 25xa440
167 134 m 25x66
 292 134 l 25x66
 292 50 l 25
 167 50 l 25xa6
 167 134 l 25x66
292 134 m 25
 417 134 l 25
 417 50 l 25x65
 292 50 l 25xa6
 292 134 l 25
417 134 m 25
 542 134 l 25
 542 50 l 25x6480
 417 50 l 25
 417 134 l 25
EndSplineSet
EndChar

StartChar: colon
Encoding: 58 58 26
Width: 584
VWidth: 0
Flags: HW
HStem: 50 84<167 417> 384 83<167 417>
VStem: 167 125<50 134 384 467> 292 125<50 134 384 467>
LayerCount: 2
Fore
SplineSet
167 467 m 25xe0
 292 467 l 25
 292 384 l 25
 167 384 l 25
 167 467 l 25xe0
292 467 m 25
 417 467 l 25
 417 384 l 25xd0
 292 384 l 25
 292 467 l 25
167 134 m 25xe0
 292 134 l 25
 292 50 l 25
 167 50 l 25
 167 134 l 25xe0
292 134 m 25
 417 134 l 25
 417 50 l 25xd0
 292 50 l 25
 292 134 l 25
EndSplineSet
EndChar

StartChar: semicolon
Encoding: 59 59 27
Width: 584
VWidth: 0
Flags: HW
HStem: -116 21G<167 292> 30 20G<167 292> 50 84<292 417> 384 83<167 417>
VStem: 167 125<-116 134 384 467> 292 125<50 134 384 467>
LayerCount: 2
Fore
SplineSet
167 467 m 25x98
 292 467 l 25
 292 384 l 25
 167 384 l 25
 167 467 l 25x98
292 467 m 25
 417 467 l 25
 417 384 l 25x94
 292 384 l 25
 292 467 l 25
167 134 m 25xb8
 292 134 l 25xb8
 292 50 l 25
 167 50 l 25xd8
 167 134 l 25xb8
292 134 m 25
 417 134 l 25
 417 50 l 25xb4
 292 50 l 25xd8
 292 134 l 25
167 50 m 25xd8
 292 50 l 25
 292 -33 l 25
 167 -33 l 25
 167 50 l 25xd8
167 -33 m 25
 292 -33 l 25
 292 -116 l 25
 167 -116 l 25
 167 -33 l 25
EndSplineSet
EndChar

StartChar: less
Encoding: 60 60 28
Width: 834
VWidth: 0
Flags: HW
HStem: 134 83<542 667> 217 83<292 542> 300 84<167 292> 384 83<292 542> 467 83<542 667>
VStem: 167 125<300 384> 292 125<217 300 384 467> 417 125<217 300 384 467> 542 125<134 217 467 550>
LayerCount: 2
Fore
SplineSet
542 550 m 25x0880
 667 550 l 25
 667 467 l 25x0880
 542 467 l 25x11
 542 550 l 25x0880
292 467 m 25x12
 417 467 l 25
 417 384 l 25x12
 292 384 l 25x24
 292 467 l 25x12
417 467 m 25
 542 467 l 25
 542 384 l 25x11
 417 384 l 25
 417 467 l 25
167 384 m 25x24
 292 384 l 25x24
 292 300 l 25x44
 167 300 l 25
 167 384 l 25x24
292 300 m 25x44
 417 300 l 25
 417 217 l 25
 292 217 l 25x42
 292 300 l 25x44
417 300 m 25
 542 300 l 25x41
 542 217 l 25x81
 417 217 l 25
 417 300 l 25
542 217 m 25x81
 667 217 l 25
 667 134 l 25
 542 134 l 25x8080
 542 217 l 25x81
EndSplineSet
EndChar

StartChar: equal
Encoding: 61 61 29
Width: 834
VWidth: 0
Flags: HW
HStem: 217 83<167 667> 384 83<167 667>
VStem: 167 125<217 300 384 467> 292 125<217 300 384 467> 417 125<217 300 384 467> 542 125<217 300 384 467>
LayerCount: 2
Fore
SplineSet
167 467 m 25xe0
 292 467 l 25
 292 384 l 25
 167 384 l 25
 167 467 l 25xe0
292 467 m 25
 417 467 l 25
 417 384 l 25xd0
 292 384 l 25
 292 467 l 25
417 467 m 25
 542 467 l 25
 542 384 l 25xc8
 417 384 l 25
 417 467 l 25
542 467 m 25
 667 467 l 25
 667 384 l 25xc4
 542 384 l 25
 542 467 l 25
167 300 m 25xe0
 292 300 l 25
 292 217 l 25
 167 217 l 25
 167 300 l 25xe0
292 300 m 25
 417 300 l 25
 417 217 l 25xd0
 292 217 l 25
 292 300 l 25
417 300 m 25
 542 300 l 25
 542 217 l 25xc8
 417 217 l 25
 417 300 l 25
542 300 m 25
 667 300 l 25
 667 217 l 25xc4
 542 217 l 25
 542 300 l 25
EndSplineSet
EndChar

StartChar: greater
Encoding: 62 62 30
Width: 834
VWidth: 0
Flags: HW
HStem: 134 83<167 292> 217 83<292 542> 300 84<542 667> 384 83<292 542> 467 83<167 292>
VStem: 167 125<134 217 467 550> 292 125<217 300 384 467> 417 125<217 300 384 467> 542 125<300 384>
LayerCount: 2
Fore
SplineSet
167 550 m 25x0c
 292 550 l 25x0c
 292 467 l 25x14
 167 467 l 25
 167 550 l 25x0c
292 467 m 25x14
 417 467 l 25
 417 384 l 25
 292 384 l 25x12
 292 467 l 25x14
417 467 m 25
 542 467 l 25x11
 542 384 l 25x21
 417 384 l 25
 417 467 l 25
542 384 m 25x21
 667 384 l 25
 667 300 l 25x2080
 542 300 l 25x41
 542 384 l 25x21
292 300 m 25x42
 417 300 l 25
 417 217 l 25x42
 292 217 l 25x84
 292 300 l 25x42
417 300 m 25
 542 300 l 25
 542 217 l 25x41
 417 217 l 25
 417 300 l 25
167 217 m 25x84
 292 217 l 25
 292 134 l 25
 167 134 l 25
 167 217 l 25x84
EndSplineSet
EndChar

StartChar: question
Encoding: 63 63 31
Width: 834
VWidth: 0
Flags: HW
HStem: 50 84<292 417> 217 83<292 417> 300 84<417 542> 447 20G<542 667> 467 167<167 292> 550 84<292 542>
VStem: 167 125<467 634> 292 125<50 134 217 300 550 634> 417 125<300 384 550 634> 542 125<384 634>
LayerCount: 2
Fore
SplineSet
167 634 m 25x8a
 292 634 l 25x8a
 292 550 l 25
 167 550 l 25x86
 167 634 l 25x8a
292 634 m 25
 417 634 l 25
 417 550 l 25x85
 292 550 l 25x86
 292 634 l 25
417 634 m 25
 542 634 l 25
 542 550 l 25x8480
 417 550 l 25
 417 634 l 25
542 634 m 25
 667 634 l 25
 667 550 l 25x8440
 542 550 l 25
 542 634 l 25
167 550 m 25x86
 292 550 l 25x86
 292 467 l 25
 167 467 l 25x8a
 167 550 l 25x86
542 550 m 25x9480
 667 550 l 25
 667 467 l 25
 542 467 l 25x9440
 542 550 l 25x9480
542 467 m 25
 667 467 l 25
 667 384 l 25xb040
 542 384 l 25xb080
 542 467 l 25
417 384 m 25xa080
 542 384 l 25
 542 300 l 25xa080
 417 300 l 25xc1
 417 384 l 25xa080
292 300 m 25xc1
 417 300 l 25
 417 217 l 25
 292 217 l 25
 292 300 l 25xc1
292 134 m 25
 417 134 l 25
 417 50 l 25
 292 50 l 25
 292 134 l 25
EndSplineSet
EndChar

StartChar: at
Encoding: 64 64 32
Width: 1084
VWidth: 0
Flags: HW
HStem: -33 167<292 417> -33 83<417 792> 50 21G<292 417> 134 83<417 542 667 792> 217 167<292 417> 217 83<542 667> 300 167<667 792> 384 83<417 667> 467 83<292 417> 550 84<417 792>
VStem: 167 125<134 467> 292 125<-33 134 217 384 467 550> 417 125<-33 50 134 217 384 467 550 634> 542 125<-33 50 217 300 384 467 550 634> 667 125<-33 50 134 217 300 467 550 634> 792 125<217 550>
LayerCount: 2
Fore
SplineSet
417 634 m 25x0048
 542 634 l 25
 542 550 l 25x0048
 417 550 l 25x0090
 417 634 l 25x0048
542 634 m 25
 667 634 l 25
 667 550 l 25x0044
 542 550 l 25
 542 634 l 25
667 634 m 25
 792 634 l 25
 792 550 l 25x0042
 667 550 l 25
 667 634 l 25
292 550 m 25x0090
 417 550 l 25x0090
 417 467 l 25x0110
 292 467 l 25x00a0
 292 550 l 25x0090
792 550 m 25x0242
 917 550 l 25x0241
 917 467 l 25x0081
 792 467 l 25
 792 550 l 25x0242
167 467 m 25x00a0
 292 467 l 25
 292 384 l 25x08a0
 167 384 l 25x0120
 167 467 l 25x00a0
417 467 m 25x0110
 542 467 l 25
 542 384 l 25x0108
 417 384 l 25x0810
 417 467 l 25x0110
542 467 m 25
 667 467 l 25x0204
 667 384 l 25x0104
 542 384 l 25
 542 467 l 25
667 467 m 25
 792 467 l 25x0202
 792 384 l 25x0102
 667 384 l 25x0104
 667 467 l 25
792 467 m 25
 917 467 l 25x0081
 917 384 l 25x0101
 792 384 l 25x0102
 792 467 l 25
167 384 m 25x0120
 292 384 l 25x0820
 292 300 l 25
 167 300 l 25x0220
 167 384 l 25x0120
292 384 m 25
 417 384 l 25x0810
 417 300 l 25x0210
 292 300 l 25x0220
 292 384 l 25
667 384 m 25x0504
 792 384 l 25x0502
 792 300 l 25x0202
 667 300 l 25
 667 384 l 25x0504
792 384 m 25
 917 384 l 25x0101
 917 300 l 25x0201
 792 300 l 25x0202
 792 384 l 25
167 300 m 25x0220
 292 300 l 25x0220
 292 217 l 25x0820
 167 217 l 25x0420
 167 300 l 25x0220
292 300 m 25
 417 300 l 25
 417 217 l 25x1210
 292 217 l 25x0820
 292 300 l 25
542 300 m 25x0404
 667 300 l 25x0404
 667 217 l 25x1004
 542 217 l 25x1008
 542 300 l 25x0404
792 300 m 25x1202
 917 300 l 25x1201
 917 217 l 25x0401
 792 217 l 25
 792 300 l 25x1202
167 217 m 25x0420
 292 217 l 25
 292 134 l 25x8820
 167 134 l 25x1020
 167 217 l 25x0420
417 217 m 25x1010
 542 217 l 25
 542 134 l 25x1008
 417 134 l 25x8010
 417 217 l 25x1010
667 217 m 25x1004
 792 217 l 25
 792 134 l 25
 667 134 l 25x1002
 667 217 l 25x1004
292 134 m 25x8020
 417 134 l 25x8010
 417 50 l 25x4010
 292 50 l 25x2010
 292 134 l 25x8020
292 50 m 25x2010
 417 50 l 25x4010
 417 -33 l 25
 292 -33 l 25x8010
 292 50 l 25x2010
417 50 m 25
 542 50 l 25
 542 -33 l 25x4008
 417 -33 l 25x8010
 417 50 l 25
542 50 m 25
 667 50 l 25
 667 -33 l 25x4004
 542 -33 l 25
 542 50 l 25
667 50 m 25
 792 50 l 25
 792 -33 l 25x4002
 667 -33 l 25
 667 50 l 25
EndSplineSet
EndChar

StartChar: A
Encoding: 65 65 33
Width: 1084
VWidth: 0
Flags: HW
HStem: 50 167<167 292 792 917> 217 167<292 417> 217 83<417 667> 447 20G<417 542 667 792> 467 167<542 667>
VStem: 167 125<50 217> 292 125<217 384> 417 125<217 300 384 634> 542 125<217 300 467 634> 667 125<217 467> 792 125<50 217>
LayerCount: 2
Fore
SplineSet
417 634 m 25x09
 542 634 l 25
 542 550 l 25
 417 550 l 25
 417 634 l 25x09
542 634 m 25
 667 634 l 25
 667 550 l 25x0880
 542 550 l 25
 542 634 l 25
417 550 m 25x11
 542 550 l 25
 542 467 l 25
 417 467 l 25
 417 550 l 25x11
542 550 m 25
 667 550 l 25
 667 467 l 25x1080
 542 467 l 25
 542 550 l 25
417 467 m 25x51
 542 467 l 25
 542 384 l 25x51
 417 384 l 25x52
 417 467 l 25x51
667 467 m 25x5080
 792 467 l 25
 792 384 l 25
 667 384 l 25x5040
 667 467 l 25x5080
292 384 m 25x42
 417 384 l 25x42
 417 300 l 25
 292 300 l 25x22
 292 384 l 25x42
667 384 m 25x4040
 792 384 l 25x4040
 792 300 l 25x2040
 667 300 l 25x2080
 667 384 l 25x4040
292 300 m 25x22
 417 300 l 25x22
 417 217 l 25x42
 292 217 l 25x84
 292 300 l 25x22
417 300 m 25
 542 300 l 25
 542 217 l 25x21
 417 217 l 25x42
 417 300 l 25
542 300 m 25
 667 300 l 25
 667 217 l 25x2080
 542 217 l 25
 542 300 l 25
667 300 m 25
 792 300 l 25x2040
 792 217 l 25x8040
 667 217 l 25
 667 300 l 25
167 217 m 25x84
 292 217 l 25
 292 134 l 25
 167 134 l 25
 167 217 l 25x84
792 217 m 25x8040
 917 217 l 25
 917 134 l 25
 792 134 l 25x8020
 792 217 l 25x8040
167 134 m 25x84
 292 134 l 25
 292 50 l 25
 167 50 l 25
 167 134 l 25x84
792 134 m 25x8020
 917 134 l 25
 917 50 l 25
 792 50 l 25
 792 134 l 25x8020
EndSplineSet
EndChar

StartChar: B
Encoding: 66 66 34
Width: 959
VWidth: 0
Flags: HW
HStem: 50 84<292 667> 134 166<667 792> 217 83<542 667> 300 84<292 542> 447 20G<167 292 542 667> 467 21G<167 292 542 667> 550 84<292 542>
VStem: 167 125<50 634> 292 125<50 134 300 384 550 634> 417 125<50 134 300 384 550 634> 542 125<50 134 217 300 384 634> 667 125<134 300>
LayerCount: 2
Fore
SplineSet
167 634 m 25x03
 292 634 l 25
 292 550 l 25
 167 550 l 25
 167 634 l 25x03
292 634 m 25
 417 634 l 25
 417 550 l 25x0280
 292 550 l 25
 292 634 l 25
417 634 m 25
 542 634 l 25
 542 550 l 25x0240
 417 550 l 25
 417 634 l 25
542 634 m 25
 667 634 l 25
 667 550 l 25x0220
 542 550 l 25
 542 634 l 25
167 550 m 25x0b
 292 550 l 25
 292 467 l 25
 167 467 l 25
 167 550 l 25x0b
542 550 m 25x0a40
 667 550 l 25
 667 467 l 25
 542 467 l 25x0a20
 542 550 l 25x0a40
167 467 m 25x1b
 292 467 l 25
 292 384 l 25
 167 384 l 25
 167 467 l 25x1b
542 467 m 25x1a20
 667 467 l 25
 667 384 l 25x1a20
 542 384 l 25x1a40
 542 467 l 25x1a20
167 384 m 25x13
 292 384 l 25
 292 300 l 25
 167 300 l 25
 167 384 l 25x13
292 384 m 25
 417 384 l 25
 417 300 l 25x1280
 292 300 l 25
 292 384 l 25
417 384 m 25
 542 384 l 25x1240
 542 300 l 25x2240
 417 300 l 25
 417 384 l 25
167 300 m 25x13
 292 300 l 25x13
 292 217 l 25
 167 217 l 25x23
 167 300 l 25x13
542 300 m 25x2240
 667 300 l 25x4220
 667 217 l 25
 542 217 l 25x2220
 542 300 l 25x2240
667 300 m 25
 792 300 l 25x4210
 792 217 l 25x2210
 667 217 l 25x2220
 667 300 l 25
167 217 m 25x23
 292 217 l 25
 292 134 l 25xa3
 167 134 l 25x43
 167 217 l 25x23
667 217 m 25xa220
 792 217 l 25xa210
 792 134 l 25x4210
 667 134 l 25
 667 217 l 25xa220
167 134 m 25x43
 292 134 l 25
 292 50 l 25
 167 50 l 25x83
 167 134 l 25x43
292 134 m 25
 417 134 l 25
 417 50 l 25x8280
 292 50 l 25
 292 134 l 25
417 134 m 25
 542 134 l 25
 542 50 l 25x8240
 417 50 l 25
 417 134 l 25
542 134 m 25
 667 134 l 25
 667 50 l 25x8220
 542 50 l 25
 542 134 l 25
EndSplineSet
EndChar

StartChar: C
Encoding: 67 67 35
Width: 834
VWidth: 0
Flags: HW
HStem: 50 167<542 667> 50 84<292 542> 447 20G<167 292> 467 167<542 667> 550 84<292 542>
VStem: 167 125<134 550> 292 125<50 134 550 634> 417 125<50 134 550 634> 542 125<50 217 467 634>
LayerCount: 2
Fore
SplineSet
292 634 m 25x0a
 417 634 l 25
 417 550 l 25x0a
 292 550 l 25x0c
 292 634 l 25x0a
417 634 m 25
 542 634 l 25x11
 542 550 l 25x09
 417 550 l 25
 417 634 l 25
542 634 m 25
 667 634 l 25x1080
 667 550 l 25x0880
 542 550 l 25x09
 542 634 l 25
167 550 m 25x2c
 292 550 l 25
 292 467 l 25
 167 467 l 25
 167 550 l 25x2c
542 550 m 25x09
 667 550 l 25x0880
 667 467 l 25
 542 467 l 25x1080
 542 550 l 25x09
167 467 m 25x24
 292 467 l 25
 292 384 l 25
 167 384 l 25
 167 467 l 25x24
167 384 m 25
 292 384 l 25
 292 300 l 25
 167 300 l 25
 167 384 l 25
167 300 m 25
 292 300 l 25
 292 217 l 25
 167 217 l 25x84
 167 300 l 25
167 217 m 25
 292 217 l 25x84
 292 134 l 25
 167 134 l 25x44
 167 217 l 25
542 217 m 25x8080
 667 217 l 25x8080
 667 134 l 25x4080
 542 134 l 25x41
 542 217 l 25x8080
292 134 m 25x44
 417 134 l 25
 417 50 l 25
 292 50 l 25x42
 292 134 l 25x44
417 134 m 25
 542 134 l 25x41
 542 50 l 25x81
 417 50 l 25
 417 134 l 25
542 134 m 25
 667 134 l 25x4080
 667 50 l 25x8080
 542 50 l 25x81
 542 134 l 25
EndSplineSet
EndChar

StartChar: D
Encoding: 68 68 36
Width: 959
VWidth: 0
Flags: HW
HStem: 50 84<292 542> 134 166<542 667> 300 84<667 792> 384 166<542 667> 447 20G<167 292 542 667> 467 21G<167 292 542 667> 550 84<292 542>
VStem: 167 125<50 634> 292 125<50 134 550 634> 417 125<50 134 550 634> 542 125<134 300 384 550> 667 125<300 384>
LayerCount: 2
Fore
SplineSet
167 634 m 25x03
 292 634 l 25
 292 550 l 25
 167 550 l 25
 167 634 l 25x03
292 634 m 25
 417 634 l 25
 417 550 l 25x0280
 292 550 l 25
 292 634 l 25
417 634 m 25
 542 634 l 25x0240
 542 550 l 25x1040
 417 550 l 25
 417 634 l 25
167 550 m 25x0b
 292 550 l 25
 292 467 l 25
 167 467 l 25
 167 550 l 25x0b
542 550 m 25x1040
 667 550 l 25x1020
 667 467 l 25
 542 467 l 25x0820
 542 550 l 25x1040
167 467 m 25x09
 292 467 l 25x09
 292 384 l 25
 167 384 l 25x11
 167 467 l 25x09
542 467 m 25x0820
 667 467 l 25
 667 384 l 25x2820
 542 384 l 25x1020
 542 467 l 25x0820
167 384 m 25x11
 292 384 l 25x11
 292 300 l 25
 167 300 l 25x21
 167 384 l 25x11
667 384 m 25x2020
 792 384 l 25
 792 300 l 25x2010
 667 300 l 25x4020
 667 384 l 25x2020
167 300 m 25x21
 292 300 l 25
 292 217 l 25
 167 217 l 25
 167 300 l 25x21
542 300 m 25x4020
 667 300 l 25
 667 217 l 25
 542 217 l 25
 542 300 l 25x4020
167 217 m 25x41
 292 217 l 25
 292 134 l 25x81
 167 134 l 25
 167 217 l 25x41
542 217 m 25x8020
 667 217 l 25
 667 134 l 25x4020
 542 134 l 25x8040
 542 217 l 25x8020
167 134 m 25x41
 292 134 l 25
 292 50 l 25
 167 50 l 25x81
 167 134 l 25x41
292 134 m 25
 417 134 l 25
 417 50 l 25x8080
 292 50 l 25
 292 134 l 25
417 134 m 25
 542 134 l 25
 542 50 l 25x8040
 417 50 l 25
 417 134 l 25
EndSplineSet
EndChar

StartChar: E
Encoding: 69 69 37
Width: 834
VWidth: 0
Flags: HW
HStem: 50 84<292 667> 300 84<292 667> 447 20G<167 292> 467 21G<167 292> 550 84<292 667>
VStem: 167 125<50 634> 292 125<50 134 300 384 550 634> 417 125<50 134 300 384 550 634> 542 125<50 134 300 384 550 634>
LayerCount: 2
Fore
SplineSet
167 634 m 25xcc
 292 634 l 25
 292 550 l 25
 167 550 l 25
 167 634 l 25xcc
292 634 m 25
 417 634 l 25
 417 550 l 25xca
 292 550 l 25
 292 634 l 25
417 634 m 25
 542 634 l 25
 542 550 l 25xc9
 417 550 l 25
 417 634 l 25
542 634 m 25
 667 634 l 25
 667 550 l 25xc880
 542 550 l 25
 542 634 l 25
167 550 m 25xec
 292 550 l 25
 292 467 l 25
 167 467 l 25
 167 550 l 25xec
167 467 m 25
 292 467 l 25
 292 384 l 25
 167 384 l 25
 167 467 l 25
167 384 m 25
 292 384 l 25
 292 300 l 25
 167 300 l 25
 167 384 l 25
292 384 m 25
 417 384 l 25
 417 300 l 25xca
 292 300 l 25
 292 384 l 25
417 384 m 25
 542 384 l 25
 542 300 l 25xc9
 417 300 l 25
 417 384 l 25
542 384 m 25
 667 384 l 25
 667 300 l 25xc880
 542 300 l 25
 542 384 l 25
167 300 m 25xcc
 292 300 l 25
 292 217 l 25
 167 217 l 25
 167 300 l 25xcc
167 217 m 25
 292 217 l 25
 292 134 l 25
 167 134 l 25
 167 217 l 25
167 134 m 25
 292 134 l 25
 292 50 l 25
 167 50 l 25
 167 134 l 25
292 134 m 25
 417 134 l 25
 417 50 l 25xca
 292 50 l 25
 292 134 l 25
417 134 m 25
 542 134 l 25
 542 50 l 25xc9
 417 50 l 25
 417 134 l 25
542 134 m 25
 667 134 l 25
 667 50 l 25xc880
 542 50 l 25
 542 134 l 25
EndSplineSet
EndChar

StartChar: F
Encoding: 70 70 38
Width: 834
VWidth: 0
Flags: HW
HStem: 50 21G<167 292> 300 84<292 667> 447 20G<167 292> 467 21G<167 292> 550 84<292 667>
VStem: 167 125<50 634> 292 125<300 384 550 634> 417 125<300 384 550 634> 542 125<300 384 550 634>
LayerCount: 2
Fore
SplineSet
167 634 m 25xcc
 292 634 l 25
 292 550 l 25
 167 550 l 25
 167 634 l 25xcc
292 634 m 25
 417 634 l 25
 417 550 l 25xca
 292 550 l 25
 292 634 l 25
417 634 m 25
 542 634 l 25
 542 550 l 25xc9
 417 550 l 25
 417 634 l 25
542 634 m 25
 667 634 l 25
 667 550 l 25xc880
 542 550 l 25
 542 634 l 25
167 550 m 25xec
 292 550 l 25
 292 467 l 25
 167 467 l 25
 167 550 l 25xec
167 467 m 25
 292 467 l 25
 292 384 l 25
 167 384 l 25
 167 467 l 25
167 384 m 25
 292 384 l 25
 292 300 l 25
 167 300 l 25
 167 384 l 25
292 384 m 25
 417 384 l 25
 417 300 l 25xca
 292 300 l 25
 292 384 l 25
417 384 m 25
 542 384 l 25
 542 300 l 25xc9
 417 300 l 25
 417 384 l 25
542 384 m 25
 667 384 l 25
 667 300 l 25xc880
 542 300 l 25
 542 384 l 25
167 300 m 25xcc
 292 300 l 25
 292 217 l 25
 167 217 l 25
 167 300 l 25xcc
167 217 m 25
 292 217 l 25
 292 134 l 25
 167 134 l 25
 167 217 l 25
167 134 m 25
 292 134 l 25
 292 50 l 25
 167 50 l 25
 167 134 l 25
EndSplineSet
EndChar

StartChar: G
Encoding: 71 71 39
Width: 834
VWidth: 0
Flags: HW
HStem: 50 84<292 542> 300 84<417 542> 447 20G<167 292> 467 167<542 667> 550 84<292 542>
VStem: 167 125<134 550> 292 125<50 134 550 634> 417 125<50 134 300 384 550 634> 542 125<50 384 467 634>
LayerCount: 2
Fore
SplineSet
292 634 m 25xca
 417 634 l 25
 417 550 l 25xca
 292 550 l 25xcc
 292 634 l 25xca
417 634 m 25
 542 634 l 25xd1
 542 550 l 25xc9
 417 550 l 25
 417 634 l 25
542 634 m 25
 667 634 l 25xd080
 667 550 l 25xc880
 542 550 l 25xc9
 542 634 l 25
167 550 m 25xec
 292 550 l 25
 292 467 l 25
 167 467 l 25
 167 550 l 25xec
542 550 m 25xc9
 667 550 l 25xc880
 667 467 l 25
 542 467 l 25xd080
 542 550 l 25xc9
167 467 m 25xe4
 292 467 l 25
 292 384 l 25
 167 384 l 25
 167 467 l 25xe4
167 384 m 25
 292 384 l 25
 292 300 l 25
 167 300 l 25
 167 384 l 25
417 384 m 25xc1
 542 384 l 25
 542 300 l 25
 417 300 l 25
 417 384 l 25xc1
542 384 m 25
 667 384 l 25
 667 300 l 25xc080
 542 300 l 25
 542 384 l 25
167 300 m 25xc4
 292 300 l 25
 292 217 l 25
 167 217 l 25
 167 300 l 25xc4
542 300 m 25xc1
 667 300 l 25
 667 217 l 25
 542 217 l 25xc080
 542 300 l 25xc1
167 217 m 25xc4
 292 217 l 25
 292 134 l 25
 167 134 l 25
 167 217 l 25xc4
542 217 m 25xc080
 667 217 l 25
 667 134 l 25xc080
 542 134 l 25xc1
 542 217 l 25xc080
292 134 m 25xc4
 417 134 l 25
 417 50 l 25
 292 50 l 25xc2
 292 134 l 25xc4
417 134 m 25
 542 134 l 25
 542 50 l 25xc1
 417 50 l 25
 417 134 l 25
542 134 m 25
 667 134 l 25
 667 50 l 25xc080
 542 50 l 25
 542 134 l 25
EndSplineSet
EndChar

StartChar: H
Encoding: 72 72 40
Width: 834
VWidth: 0
Flags: HW
HStem: 50 21G<167 292 542 667> 300 84<292 542> 447 20G<167 292 542 667> 467 21G<167 292 542 667> 614 20G<167 292 542 667>
VStem: 167 125<50 634> 292 125<300 384> 417 125<300 384> 542 125<50 634>
LayerCount: 2
Fore
SplineSet
167 634 m 25xcc
 292 634 l 25
 292 550 l 25
 167 550 l 25
 167 634 l 25xcc
542 634 m 25xc880
 667 634 l 25
 667 550 l 25
 542 550 l 25
 542 634 l 25xc880
167 550 m 25xec
 292 550 l 25
 292 467 l 25
 167 467 l 25
 167 550 l 25xec
542 550 m 25xe880
 667 550 l 25
 667 467 l 25
 542 467 l 25
 542 550 l 25xe880
167 467 m 25xec
 292 467 l 25
 292 384 l 25
 167 384 l 25
 167 467 l 25xec
542 467 m 25xe880
 667 467 l 25
 667 384 l 25xe880
 542 384 l 25xe9
 542 467 l 25xe880
167 384 m 25xcc
 292 384 l 25
 292 300 l 25
 167 300 l 25
 167 384 l 25xcc
292 384 m 25
 417 384 l 25
 417 300 l 25xca
 292 300 l 25
 292 384 l 25
417 384 m 25
 542 384 l 25
 542 300 l 25xc9
 417 300 l 25
 417 384 l 25
542 384 m 25
 667 384 l 25
 667 300 l 25xc880
 542 300 l 25
 542 384 l 25
167 300 m 25xcc
 292 300 l 25
 292 217 l 25
 167 217 l 25
 167 300 l 25xcc
542 300 m 25xc9
 667 300 l 25
 667 217 l 25
 542 217 l 25xc880
 542 300 l 25xc9
167 217 m 25xcc
 292 217 l 25
 292 134 l 25
 167 134 l 25
 167 217 l 25xcc
542 217 m 25xc880
 667 217 l 25
 667 134 l 25
 542 134 l 25
 542 217 l 25xc880
167 134 m 25xcc
 292 134 l 25
 292 50 l 25
 167 50 l 25
 167 134 l 25xcc
542 134 m 25xc880
 667 134 l 25
 667 50 l 25
 542 50 l 25
 542 134 l 25xc880
EndSplineSet
EndChar

StartChar: I
Encoding: 73 73 41
Width: 834
VWidth: 0
Flags: HW
HStem: 50 84<167 292 417 667> 447 20G<292 417> 467 21G<292 417> 550 84<167 292 417 667>
VStem: 167 125<50 134 550 634> 292 125<50 634> 417 125<50 134 550 634> 542 125<50 134 550 634>
LayerCount: 2
Fore
SplineSet
167 634 m 25x98
 292 634 l 25
 292 550 l 25
 167 550 l 25
 167 634 l 25x98
292 634 m 25
 417 634 l 25
 417 550 l 25x94
 292 550 l 25
 292 634 l 25
417 634 m 25
 542 634 l 25
 542 550 l 25x92
 417 550 l 25
 417 634 l 25
542 634 m 25
 667 634 l 25
 667 550 l 25x91
 542 550 l 25
 542 634 l 25
292 550 m 25xd8
 417 550 l 25
 417 467 l 25
 292 467 l 25xd4
 292 550 l 25xd8
292 467 m 25
 417 467 l 25
 417 384 l 25
 292 384 l 25
 292 467 l 25
292 384 m 25
 417 384 l 25
 417 300 l 25
 292 300 l 25
 292 384 l 25
292 300 m 25
 417 300 l 25
 417 217 l 25
 292 217 l 25
 292 300 l 25
292 217 m 25
 417 217 l 25
 417 134 l 25x94
 292 134 l 25x98
 292 217 l 25
167 134 m 25x98
 292 134 l 25
 292 50 l 25
 167 50 l 25
 167 134 l 25x98
292 134 m 25
 417 134 l 25
 417 50 l 25x94
 292 50 l 25
 292 134 l 25
417 134 m 25
 542 134 l 25
 542 50 l 25x92
 417 50 l 25
 417 134 l 25
542 134 m 25
 667 134 l 25
 667 50 l 25x91
 542 50 l 25
 542 134 l 25
EndSplineSet
EndChar

StartChar: J
Encoding: 74 74 42
Width: 834
VWidth: 0
Flags: HW
HStem: 50 167<167 292> 50 84<292 542> 447 20G<542 667> 467 21G<542 667> 550 84<292 542>
VStem: 167 125<50 217> 292 125<50 134 550 634> 417 125<50 134 550 634> 542 125<134 634>
LayerCount: 2
Fore
SplineSet
292 634 m 25x0a
 417 634 l 25
 417 550 l 25
 292 550 l 25
 292 634 l 25x0a
417 634 m 25
 542 634 l 25
 542 550 l 25x09
 417 550 l 25
 417 634 l 25
542 634 m 25
 667 634 l 25
 667 550 l 25x0880
 542 550 l 25
 542 634 l 25
542 550 m 25x29
 667 550 l 25
 667 467 l 25
 542 467 l 25x2880
 542 550 l 25x29
542 467 m 25
 667 467 l 25
 667 384 l 25
 542 384 l 25
 542 467 l 25
542 384 m 25
 667 384 l 25
 667 300 l 25
 542 300 l 25
 542 384 l 25
542 300 m 25
 667 300 l 25
 667 217 l 25
 542 217 l 25x8880
 542 300 l 25
167 217 m 25x8c
 292 217 l 25x8c
 292 134 l 25
 167 134 l 25x4c
 167 217 l 25x8c
542 217 m 25x8880
 667 217 l 25x8880
 667 134 l 25x4880
 542 134 l 25x49
 542 217 l 25x8880
167 134 m 25x4c
 292 134 l 25x4c
 292 50 l 25
 167 50 l 25x8c
 167 134 l 25x4c
292 134 m 25
 417 134 l 25
 417 50 l 25x4a
 292 50 l 25x8c
 292 134 l 25
417 134 m 25
 542 134 l 25
 542 50 l 25x49
 417 50 l 25
 417 134 l 25
EndSplineSet
EndChar

StartChar: K
Encoding: 75 75 43
Width: 959
VWidth: 0
Flags: HW
HStem: 50 84<667 792> 134 83<542 667> 300 84<292 417> 447 20G<167 292 417 542> 467 21G<167 292 417 542> 550 84<542 667>
VStem: 167 125<50 634> 292 125<300 384> 417 125<217 550> 542 125<134 217 550 634> 667 125<50 134>
LayerCount: 2
Fore
SplineSet
167 634 m 25x26
 292 634 l 25
 292 550 l 25
 167 550 l 25
 167 634 l 25x26
542 634 m 25x2440
 667 634 l 25
 667 550 l 25x2440
 542 550 l 25x2480
 542 634 l 25x2440
167 550 m 25x36
 292 550 l 25
 292 467 l 25
 167 467 l 25
 167 550 l 25x36
417 550 m 25x3480
 542 550 l 25
 542 467 l 25
 417 467 l 25
 417 550 l 25x3480
167 467 m 25x36
 292 467 l 25
 292 384 l 25
 167 384 l 25
 167 467 l 25x36
417 467 m 25x3480
 542 467 l 25
 542 384 l 25x3480
 417 384 l 25x35
 417 467 l 25x3480
167 384 m 25x26
 292 384 l 25
 292 300 l 25
 167 300 l 25
 167 384 l 25x26
292 384 m 25
 417 384 l 25
 417 300 l 25x25
 292 300 l 25
 292 384 l 25
417 384 m 25
 542 384 l 25
 542 300 l 25x2480
 417 300 l 25
 417 384 l 25
167 300 m 25x66
 292 300 l 25
 292 217 l 25
 167 217 l 25
 167 300 l 25x66
417 300 m 25x65
 542 300 l 25
 542 217 l 25
 417 217 l 25x6480
 417 300 l 25x65
167 217 m 25x66
 292 217 l 25
 292 134 l 25
 167 134 l 25
 167 217 l 25x66
542 217 m 25x6480
 667 217 l 25x6440
 667 134 l 25xa440
 542 134 l 25x6440
 542 217 l 25x6480
167 134 m 25x66
 292 134 l 25x66
 292 50 l 25
 167 50 l 25xa6
 167 134 l 25x66
667 134 m 25xa440
 792 134 l 25
 792 50 l 25
 667 50 l 25xa420
 667 134 l 25xa440
EndSplineSet
EndChar

StartChar: L
Encoding: 76 76 44
Width: 834
VWidth: 0
Flags: HW
HStem: 50 84<292 667> 447 20G<167 292> 467 21G<167 292> 614 20G<167 292>
VStem: 167 125<50 634> 292 125<50 134> 417 125<50 134> 542 125<50 134>
LayerCount: 2
Fore
SplineSet
167 634 m 25x98
 292 634 l 25
 292 550 l 25
 167 550 l 25
 167 634 l 25x98
167 550 m 25
 292 550 l 25
 292 467 l 25
 167 467 l 25xd8
 167 550 l 25
167 467 m 25
 292 467 l 25
 292 384 l 25
 167 384 l 25
 167 467 l 25
167 384 m 25
 292 384 l 25
 292 300 l 25
 167 300 l 25
 167 384 l 25
167 300 m 25
 292 300 l 25
 292 217 l 25
 167 217 l 25
 167 300 l 25
167 217 m 25
 292 217 l 25
 292 134 l 25
 167 134 l 25
 167 217 l 25
167 134 m 25
 292 134 l 25
 292 50 l 25
 167 50 l 25
 167 134 l 25
292 134 m 25
 417 134 l 25
 417 50 l 25x94
 292 50 l 25
 292 134 l 25
417 134 m 25
 542 134 l 25
 542 50 l 25x92
 417 50 l 25
 417 134 l 25
542 134 m 25
 667 134 l 25
 667 50 l 25x91
 542 50 l 25
 542 134 l 25
EndSplineSet
EndChar

StartChar: M
Encoding: 77 77 45
Width: 834
VWidth: 0
Flags: HW
HStem: 50 21G<167 292 542 667> 300 167<292 417> 467 21G<167 292 542 667> 614 20G<167 292 542 667>
VStem: 167 125<50 634> 292 125<300 467> 417 125<217 467> 542 125<50 634>
LayerCount: 2
Fore
SplineSet
167 634 m 25x98
 292 634 l 25
 292 550 l 25
 167 550 l 25
 167 634 l 25x98
542 634 m 25x91
 667 634 l 25
 667 550 l 25
 542 550 l 25
 542 634 l 25x91
167 550 m 25xb8
 292 550 l 25
 292 467 l 25xd8
 167 467 l 25
 167 550 l 25xb8
542 550 m 25xb1
 667 550 l 25
 667 467 l 25xb1
 542 467 l 25xb2
 542 550 l 25xb1
167 467 m 25xb8
 292 467 l 25xd8
 292 384 l 25
 167 384 l 25
 167 467 l 25xb8
292 467 m 25
 417 467 l 25
 417 384 l 25xd4
 292 384 l 25
 292 467 l 25
417 467 m 25
 542 467 l 25
 542 384 l 25xb2
 417 384 l 25
 417 467 l 25
542 467 m 25
 667 467 l 25
 667 384 l 25xb1
 542 384 l 25
 542 467 l 25
167 384 m 25xd8
 292 384 l 25
 292 300 l 25
 167 300 l 25
 167 384 l 25xd8
292 384 m 25
 417 384 l 25
 417 300 l 25xd4
 292 300 l 25
 292 384 l 25
417 384 m 25
 542 384 l 25
 542 300 l 25xd2
 417 300 l 25
 417 384 l 25
542 384 m 25
 667 384 l 25
 667 300 l 25xd1
 542 300 l 25
 542 384 l 25
167 300 m 25xd8
 292 300 l 25
 292 217 l 25
 167 217 l 25
 167 300 l 25xd8
417 300 m 25xd4
 542 300 l 25
 542 217 l 25
 417 217 l 25xd2
 417 300 l 25xd4
542 300 m 25
 667 300 l 25
 667 217 l 25xd1
 542 217 l 25
 542 300 l 25
167 217 m 25x98
 292 217 l 25
 292 134 l 25
 167 134 l 25
 167 217 l 25x98
542 217 m 25x92
 667 217 l 25
 667 134 l 25
 542 134 l 25x91
 542 217 l 25x92
167 134 m 25x98
 292 134 l 25
 292 50 l 25
 167 50 l 25
 167 134 l 25x98
542 134 m 25x91
 667 134 l 25
 667 50 l 25
 542 50 l 25
 542 134 l 25x91
EndSplineSet
EndChar

StartChar: N
Encoding: 78 78 46
Width: 834
VWidth: 0
Flags: HW
HStem: 50 21G<167 292 542 667> 134 166<417 542> 447 20G<167 292 292 417 542 667> 467 21G<167 292 292 417 542 667> 614 20G<167 292 542 667>
VStem: 167 125<50 634> 292 125<300 550> 417 125<134 300> 542 125<50 634>
LayerCount: 2
Fore
SplineSet
167 634 m 25xcc
 292 634 l 25
 292 550 l 25
 167 550 l 25
 167 634 l 25xcc
542 634 m 25xc880
 667 634 l 25
 667 550 l 25
 542 550 l 25
 542 634 l 25xc880
167 550 m 25xec
 292 550 l 25
 292 467 l 25
 167 467 l 25
 167 550 l 25xec
292 550 m 25
 417 550 l 25
 417 467 l 25xea
 292 467 l 25
 292 550 l 25
542 550 m 25xe880
 667 550 l 25
 667 467 l 25
 542 467 l 25
 542 550 l 25xe880
167 467 m 25xec
 292 467 l 25
 292 384 l 25
 167 384 l 25
 167 467 l 25xec
292 467 m 25
 417 467 l 25
 417 384 l 25xea
 292 384 l 25
 292 467 l 25
542 467 m 25xe880
 667 467 l 25
 667 384 l 25
 542 384 l 25
 542 467 l 25xe880
167 384 m 25xcc
 292 384 l 25
 292 300 l 25
 167 300 l 25
 167 384 l 25xcc
292 384 m 25
 417 384 l 25
 417 300 l 25xca
 292 300 l 25
 292 384 l 25
542 384 m 25xc880
 667 384 l 25
 667 300 l 25xc880
 542 300 l 25xc9
 542 384 l 25xc880
167 300 m 25xcc
 292 300 l 25
 292 217 l 25
 167 217 l 25
 167 300 l 25xcc
417 300 m 25xca
 542 300 l 25
 542 217 l 25
 417 217 l 25xc9
 417 300 l 25xca
542 300 m 25
 667 300 l 25
 667 217 l 25xc880
 542 217 l 25
 542 300 l 25
167 217 m 25xcc
 292 217 l 25
 292 134 l 25
 167 134 l 25
 167 217 l 25xcc
417 217 m 25xc9
 542 217 l 25
 542 134 l 25
 417 134 l 25
 417 217 l 25xc9
542 217 m 25
 667 217 l 25
 667 134 l 25xc880
 542 134 l 25
 542 217 l 25
167 134 m 25xcc
 292 134 l 25
 292 50 l 25
 167 50 l 25
 167 134 l 25xcc
542 134 m 25xc9
 667 134 l 25
 667 50 l 25
 542 50 l 25xc880
 542 134 l 25xc9
EndSplineSet
EndChar

StartChar: O
Encoding: 79 79 47
Width: 1084
VWidth: 0
Flags: HW
HStem: 50 84<417 667> 134 166<292 417 667 792> 300 84<167 292 792 917> 384 250<292 417 667 792> 447 20G<292 417 667 792> 467 21G<292 417 667 792> 550 84<417 667>
VStem: 167 125<300 384> 292 125<134 300 384 634> 417 125<50 134 550 634> 542 125<50 134 550 634> 667 125<134 300 384 634> 792 125<300 384>
LayerCount: 2
Fore
SplineSet
292 634 m 25x1080
 417 634 l 25x1080
 417 550 l 25
 292 550 l 25x0280
 292 634 l 25x1080
417 634 m 25
 542 634 l 25
 542 550 l 25x0240
 417 550 l 25x0280
 417 634 l 25
542 634 m 25
 667 634 l 25x1020
 667 550 l 25x0220
 542 550 l 25
 542 634 l 25
667 634 m 25
 792 634 l 25x1010
 792 550 l 25x0210
 667 550 l 25x0220
 667 634 l 25
292 550 m 25x0a80
 417 550 l 25
 417 467 l 25
 292 467 l 25
 292 550 l 25x0a80
667 550 m 25x0a20
 792 550 l 25
 792 467 l 25
 667 467 l 25x0a10
 667 550 l 25x0a20
292 467 m 25x2880
 417 467 l 25x2880
 417 384 l 25x1080
 292 384 l 25x21
 292 467 l 25x2880
667 467 m 25x0810
 792 467 l 25
 792 384 l 25x2810
 667 384 l 25x1010
 667 467 l 25x0810
167 384 m 25x21
 292 384 l 25x21
 292 300 l 25x41
 167 300 l 25
 167 384 l 25x21
792 384 m 25x2010
 917 384 l 25
 917 300 l 25x2008
 792 300 l 25x4010
 792 384 l 25x2010
292 300 m 25x41
 417 300 l 25
 417 217 l 25
 292 217 l 25x4080
 292 300 l 25x41
667 300 m 25x4010
 792 300 l 25
 792 217 l 25
 667 217 l 25
 667 300 l 25x4010
292 217 m 25x4080
 417 217 l 25
 417 134 l 25x8080
 292 134 l 25
 292 217 l 25x4080
667 217 m 25x8010
 792 217 l 25
 792 134 l 25x4010
 667 134 l 25x8020
 667 217 l 25x8010
417 134 m 25x8080
 542 134 l 25
 542 50 l 25
 417 50 l 25x8040
 417 134 l 25x8080
542 134 m 25
 667 134 l 25
 667 50 l 25x8020
 542 50 l 25
 542 134 l 25
EndSplineSet
EndChar

StartChar: P
Encoding: 80 80 48
Width: 834
VWidth: 0
Flags: HW
HStem: 50 21G<167 292> 300 84<292 542> 447 20G<167 292 542 667> 467 21G<167 292 542 667> 550 84<292 542>
VStem: 167 125<50 634> 292 125<300 384 550 634> 417 125<300 384 550 634> 542 125<300 634>
LayerCount: 2
Fore
SplineSet
167 634 m 25xcc
 292 634 l 25
 292 550 l 25
 167 550 l 25
 167 634 l 25xcc
292 634 m 25
 417 634 l 25
 417 550 l 25xca
 292 550 l 25
 292 634 l 25
417 634 m 25
 542 634 l 25
 542 550 l 25xc9
 417 550 l 25
 417 634 l 25
542 634 m 25
 667 634 l 25
 667 550 l 25xc880
 542 550 l 25
 542 634 l 25
167 550 m 25xec
 292 550 l 25
 292 467 l 25
 167 467 l 25
 167 550 l 25xec
542 550 m 25xe9
 667 550 l 25
 667 467 l 25
 542 467 l 25xe880
 542 550 l 25xe9
167 467 m 25xec
 292 467 l 25
 292 384 l 25
 167 384 l 25
 167 467 l 25xec
542 467 m 25xe880
 667 467 l 25
 667 384 l 25xe880
 542 384 l 25xe9
 542 467 l 25xe880
167 384 m 25xcc
 292 384 l 25
 292 300 l 25
 167 300 l 25
 167 384 l 25xcc
292 384 m 25
 417 384 l 25
 417 300 l 25xca
 292 300 l 25
 292 384 l 25
417 384 m 25
 542 384 l 25
 542 300 l 25xc9
 417 300 l 25
 417 384 l 25
542 384 m 25
 667 384 l 25
 667 300 l 25xc880
 542 300 l 25
 542 384 l 25
167 300 m 25xcc
 292 300 l 25
 292 217 l 25
 167 217 l 25
 167 300 l 25xcc
167 217 m 25
 292 217 l 25
 292 134 l 25
 167 134 l 25
 167 217 l 25
167 134 m 25
 292 134 l 25
 292 50 l 25
 167 50 l 25
 167 134 l 25
EndSplineSet
EndChar

StartChar: Q
Encoding: 81 81 49
Width: 1084
VWidth: 0
Flags: HW
HStem: -116 83<667 917> 30 20G<542 667> 50 84<417 542> 134 166<667 792> 300 84<167 292 792 917> 384 250<292 417 667 792> 447 20G<292 417 667 792> 467 21G<292 417 667 792> 550 84<417 667>
VStem: 167 125<300 384> 292 125<50 300 384 634> 417 125<50 134 550 634> 542 125<-116 134 550 634> 667 125<-116 -33 134 300 384 634> 792 125<-116 -33 300 384>
LayerCount: 2
Fore
SplineSet
292 634 m 25x8420
 417 634 l 25x8420
 417 550 l 25
 292 550 l 25x80a0
 292 634 l 25x8420
417 634 m 25
 542 634 l 25
 542 550 l 25x8090
 417 550 l 25x80a0
 417 634 l 25
542 634 m 25
 667 634 l 25x8408
 667 550 l 25x8088
 542 550 l 25
 542 634 l 25
667 634 m 25
 792 634 l 25x8404
 792 550 l 25x8084
 667 550 l 25x8088
 667 634 l 25
292 550 m 25x82a0
 417 550 l 25
 417 467 l 25
 292 467 l 25
 292 550 l 25x82a0
667 550 m 25x8288
 792 550 l 25
 792 467 l 25
 667 467 l 25x8284
 667 550 l 25x8288
292 467 m 25x8a20
 417 467 l 25x8a20
 417 384 l 25x8420
 292 384 l 25x8840
 292 467 l 25x8a20
667 467 m 25x8204
 792 467 l 25
 792 384 l 25x8a04
 667 384 l 25x8404
 667 467 l 25x8204
167 384 m 25x8840
 292 384 l 25
 292 300 l 25
 167 300 l 25
 167 384 l 25x8840
792 384 m 25x8804
 917 384 l 25
 917 300 l 25x8802
 792 300 l 25x9004
 792 384 l 25x8804
292 300 m 25x8840
 417 300 l 25
 417 217 l 25
 292 217 l 25x8820
 292 300 l 25x8840
667 300 m 25x9004
 792 300 l 25
 792 217 l 25
 667 217 l 25
 667 300 l 25x9004
292 217 m 25x9020
 417 217 l 25
 417 134 l 25xa020
 292 134 l 25
 292 217 l 25x9020
667 217 m 25x9004
 792 217 l 25
 792 134 l 25x9004
 667 134 l 25x9008
 667 217 l 25x9004
292 134 m 25x9020
 417 134 l 25
 417 50 l 25
 292 50 l 25xa020
 292 134 l 25x9020
417 134 m 25
 542 134 l 25xa010
 542 50 l 25xc010
 417 50 l 25
 417 134 l 25
542 134 m 25
 667 134 l 25
 667 50 l 25xd008
 542 50 l 25xd010
 542 134 l 25
542 50 m 25xc010
 667 50 l 25
 667 -33 l 25
 542 -33 l 25xc008
 542 50 l 25xc010
542 -33 m 25
 667 -33 l 25
 667 -116 l 25
 542 -116 l 25
 542 -33 l 25
667 -33 m 25
 792 -33 l 25
 792 -116 l 25x8004
 667 -116 l 25
 667 -33 l 25
792 -33 m 25
 917 -33 l 25
 917 -116 l 25x8002
 792 -116 l 25
 792 -33 l 25
EndSplineSet
EndChar

StartChar: R
Encoding: 82 82 50
Width: 834
VWidth: 0
Flags: HW
HStem: 50 167<542 667> 217 167<417 542> 300 84<292 417> 447 20G<167 292 542 667> 467 21G<167 292 542 667> 550 84<292 542>
VStem: 167 125<50 634> 292 125<300 384 550 634> 417 125<217 384 550 634> 542 125<50 217 300 634>
LayerCount: 2
Fore
SplineSet
167 634 m 25x06
 292 634 l 25
 292 550 l 25
 167 550 l 25
 167 634 l 25x06
292 634 m 25
 417 634 l 25
 417 550 l 25x05
 292 550 l 25
 292 634 l 25
417 634 m 25
 542 634 l 25
 542 550 l 25x0480
 417 550 l 25
 417 634 l 25
542 634 m 25
 667 634 l 25
 667 550 l 25x0440
 542 550 l 25
 542 634 l 25
167 550 m 25x16
 292 550 l 25
 292 467 l 25
 167 467 l 25
 167 550 l 25x16
542 550 m 25x1480
 667 550 l 25
 667 467 l 25
 542 467 l 25x1440
 542 550 l 25x1480
167 467 m 25x36
 292 467 l 25
 292 384 l 25
 167 384 l 25
 167 467 l 25x36
542 467 m 25x5440
 667 467 l 25
 667 384 l 25x3440
 542 384 l 25x4480
 542 467 l 25x5440
167 384 m 25x26
 292 384 l 25
 292 300 l 25
 167 300 l 25
 167 384 l 25x26
292 384 m 25
 417 384 l 25x45
 417 300 l 25x25
 292 300 l 25
 292 384 l 25
417 384 m 25
 542 384 l 25x4480
 542 300 l 25x2480
 417 300 l 25x25
 417 384 l 25
542 384 m 25
 667 384 l 25
 667 300 l 25x2440
 542 300 l 25x2480
 542 384 l 25
167 300 m 25x26
 292 300 l 25x26
 292 217 l 25
 167 217 l 25x46
 167 300 l 25x26
417 300 m 25x25
 542 300 l 25
 542 217 l 25xa480
 417 217 l 25x4480
 417 300 l 25x25
167 217 m 25x46
 292 217 l 25
 292 134 l 25
 167 134 l 25
 167 217 l 25x46
542 217 m 25x8480
 667 217 l 25
 667 134 l 25
 542 134 l 25x8440
 542 217 l 25x8480
167 134 m 25x86
 292 134 l 25
 292 50 l 25
 167 50 l 25
 167 134 l 25x86
542 134 m 25x8440
 667 134 l 25
 667 50 l 25
 542 50 l 25
 542 134 l 25x8440
EndSplineSet
EndChar

StartChar: S
Encoding: 83 83 51
Width: 959
VWidth: 0
Flags: HW
HStem: 50 84<417 667> 134 83<167 292> 300 84<417 667> 447 20G<292 417> 467 167<667 792> 550 84<417 667>
VStem: 167 125<134 217> 292 125<50 217 384 634> 417 125<50 134 300 384 550 634> 542 125<50 134 300 384 550 634> 667 125<50 384 467 634>
LayerCount: 2
Fore
SplineSet
292 634 m 25x25
 417 634 l 25
 417 550 l 25
 292 550 l 25
 292 634 l 25x25
417 634 m 25
 542 634 l 25
 542 550 l 25x2480
 417 550 l 25
 417 634 l 25
542 634 m 25
 667 634 l 25x2840
 667 550 l 25x2440
 542 550 l 25
 542 634 l 25
667 634 m 25
 792 634 l 25x2820
 792 550 l 25x2420
 667 550 l 25x2440
 667 634 l 25
292 550 m 25x35
 417 550 l 25
 417 467 l 25
 292 467 l 25
 292 550 l 25x35
667 550 m 25x2440
 792 550 l 25x2420
 792 467 l 25
 667 467 l 25x2820
 667 550 l 25x2440
292 467 m 25x31
 417 467 l 25
 417 384 l 25
 292 384 l 25
 292 467 l 25x31
417 384 m 25
 542 384 l 25
 542 300 l 25
 417 300 l 25x2080
 417 384 l 25
542 384 m 25
 667 384 l 25
 667 300 l 25x2040
 542 300 l 25
 542 384 l 25
667 384 m 25
 792 384 l 25
 792 300 l 25x2020
 667 300 l 25
 667 384 l 25
667 300 m 25x6040
 792 300 l 25
 792 217 l 25
 667 217 l 25x6020
 667 300 l 25x6040
167 217 m 25x62
 292 217 l 25
 292 134 l 25
 167 134 l 25
 167 217 l 25x62
292 217 m 25
 417 217 l 25x61
 417 134 l 25xa1
 292 134 l 25
 292 217 l 25
667 217 m 25x6020
 792 217 l 25
 792 134 l 25x6020
 667 134 l 25xa040
 667 217 l 25x6020
292 134 m 25x62
 417 134 l 25
 417 50 l 25
 292 50 l 25xa1
 292 134 l 25x62
417 134 m 25
 542 134 l 25
 542 50 l 25xa080
 417 50 l 25
 417 134 l 25
542 134 m 25
 667 134 l 25
 667 50 l 25xa040
 542 50 l 25
 542 134 l 25
667 134 m 25
 792 134 l 25x6020
 792 50 l 25xa020
 667 50 l 25
 667 134 l 25
EndSplineSet
EndChar

StartChar: T
Encoding: 84 84 52
Width: 1084
VWidth: 0
Flags: HW
HStem: 50 21G<417 542> 447 20G<417 542> 467 21G<417 542> 550 84<167 417 542 917>
VStem: 167 125<550 634> 292 125<550 634> 417 125<50 634> 542 125<550 634> 667 125<550 634> 792 125<550 634>
LayerCount: 2
Fore
SplineSet
167 634 m 25x98
 292 634 l 25
 292 550 l 25
 167 550 l 25
 167 634 l 25x98
292 634 m 25
 417 634 l 25
 417 550 l 25x94
 292 550 l 25
 292 634 l 25
417 634 m 25
 542 634 l 25
 542 550 l 25x92
 417 550 l 25
 417 634 l 25
542 634 m 25
 667 634 l 25
 667 550 l 25x91
 542 550 l 25
 542 634 l 25
667 634 m 25
 792 634 l 25
 792 550 l 25x9080
 667 550 l 25
 667 634 l 25
792 634 m 25
 917 634 l 25
 917 550 l 25x9040
 792 550 l 25
 792 634 l 25
417 550 m 25xd4
 542 550 l 25
 542 467 l 25
 417 467 l 25xd2
 417 550 l 25xd4
417 467 m 25
 542 467 l 25
 542 384 l 25
 417 384 l 25
 417 467 l 25
417 384 m 25
 542 384 l 25
 542 300 l 25
 417 300 l 25
 417 384 l 25
417 300 m 25
 542 300 l 25
 542 217 l 25
 417 217 l 25
 417 300 l 25
417 217 m 25
 542 217 l 25
 542 134 l 25
 417 134 l 25
 417 217 l 25
417 134 m 25
 542 134 l 25
 542 50 l 25
 417 50 l 25
 417 134 l 25
EndSplineSet
EndChar

StartChar: U
Encoding: 85 85 53
Width: 834
VWidth: 0
Flags: HW
HStem: 50 84<292 542> 447 20G<167 292 542 667> 467 21G<167 292 542 667> 614 20G<167 292 542 667>
VStem: 167 125<50 634> 292 125<50 134> 417 125<50 134> 542 125<50 634>
LayerCount: 2
Fore
SplineSet
167 634 m 25x98
 292 634 l 25
 292 550 l 25
 167 550 l 25
 167 634 l 25x98
542 634 m 25x91
 667 634 l 25
 667 550 l 25
 542 550 l 25
 542 634 l 25x91
167 550 m 25xd8
 292 550 l 25
 292 467 l 25
 167 467 l 25
 167 550 l 25xd8
542 550 m 25xd1
 667 550 l 25
 667 467 l 25
 542 467 l 25
 542 550 l 25xd1
167 467 m 25xd8
 292 467 l 25
 292 384 l 25
 167 384 l 25
 167 467 l 25xd8
542 467 m 25xd1
 667 467 l 25
 667 384 l 25
 542 384 l 25
 542 467 l 25xd1
167 384 m 25x98
 292 384 l 25
 292 300 l 25
 167 300 l 25
 167 384 l 25x98
542 384 m 25x91
 667 384 l 25
 667 300 l 25
 542 300 l 25
 542 384 l 25x91
167 300 m 25x98
 292 300 l 25
 292 217 l 25
 167 217 l 25
 167 300 l 25x98
542 300 m 25x91
 667 300 l 25
 667 217 l 25
 542 217 l 25
 542 300 l 25x91
167 217 m 25x98
 292 217 l 25
 292 134 l 25
 167 134 l 25
 167 217 l 25x98
542 217 m 25x91
 667 217 l 25
 667 134 l 25x91
 542 134 l 25x92
 542 217 l 25x91
167 134 m 25x98
 292 134 l 25
 292 50 l 25
 167 50 l 25
 167 134 l 25x98
292 134 m 25
 417 134 l 25
 417 50 l 25x94
 292 50 l 25
 292 134 l 25
417 134 m 25
 542 134 l 25
 542 50 l 25x92
 417 50 l 25
 417 134 l 25
542 134 m 25
 667 134 l 25
 667 50 l 25x91
 542 50 l 25
 542 134 l 25
EndSplineSet
EndChar

StartChar: V
Encoding: 86 86 54
Width: 1084
VWidth: 0
Flags: HW
HStem: 50 250<417 667> 300 250<292 417 667 792> 447 20G<292 417 667 792> 467 21G<292 417 667 792> 550 84<167 292 792 917>
VStem: 167 125<550 634> 292 125<300 550> 417 125<50 300> 542 125<50 300> 667 125<300 550> 792 125<550 634>
LayerCount: 2
Fore
SplineSet
167 634 m 25x0c
 292 634 l 25x0c
 292 550 l 25x44
 167 550 l 25
 167 634 l 25x0c
792 634 m 25x0820
 917 634 l 25
 917 550 l 25x0820
 792 550 l 25x4040
 792 634 l 25x0820
292 550 m 25x44
 417 550 l 25x42
 417 467 l 25
 292 467 l 25x22
 292 550 l 25x44
667 550 m 25x4040
 792 550 l 25x4040
 792 467 l 25
 667 467 l 25x2040
 667 550 l 25x4040
292 467 m 25x22
 417 467 l 25
 417 384 l 25
 292 384 l 25
 292 467 l 25x22
667 467 m 25x2040
 792 467 l 25
 792 384 l 25
 667 384 l 25
 667 467 l 25x2040
292 384 m 25x42
 417 384 l 25
 417 300 l 25x82
 292 300 l 25
 292 384 l 25x42
667 384 m 25x8040
 792 384 l 25
 792 300 l 25x4040
 667 300 l 25x8080
 667 384 l 25x8040
417 300 m 25x82
 542 300 l 25
 542 217 l 25
 417 217 l 25x81
 417 300 l 25x82
542 300 m 25
 667 300 l 25
 667 217 l 25x8080
 542 217 l 25
 542 300 l 25
417 217 m 25x01
 542 217 l 25
 542 134 l 25
 417 134 l 25
 417 217 l 25x01
542 217 m 25
 667 217 l 25
 667 134 l 25x0080
 542 134 l 25
 542 217 l 25
417 134 m 25x81
 542 134 l 25
 542 50 l 25
 417 50 l 25
 417 134 l 25x81
542 134 m 25
 667 134 l 25
 667 50 l 25x8080
 542 50 l 25
 542 134 l 25
EndSplineSet
EndChar

StartChar: W
Encoding: 87 87 55
Width: 1084
VWidth: 0
Flags: HW
HStem: 50 250<292 417 667 792> 217 250<417 667> 300 334<167 292 792 917> 467 21G<167 292 792 917>
VStem: 167 125<300 634> 292 125<50 300> 417 125<217 467> 542 125<217 467> 667 125<50 300> 792 125<300 634>
LayerCount: 2
Fore
SplineSet
167 634 m 25x28
 292 634 l 25
 292 550 l 25
 167 550 l 25
 167 634 l 25x28
792 634 m 25x2040
 917 634 l 25
 917 550 l 25
 792 550 l 25
 792 634 l 25x2040
167 550 m 25x18
 292 550 l 25
 292 467 l 25
 167 467 l 25
 167 550 l 25x18
792 550 m 25x1040
 917 550 l 25
 917 467 l 25
 792 467 l 25
 792 550 l 25x1040
167 467 m 25x18
 292 467 l 25
 292 384 l 25
 167 384 l 25
 167 467 l 25x18
417 467 m 25x42
 542 467 l 25
 542 384 l 25
 417 384 l 25
 417 467 l 25x42
542 467 m 25
 667 467 l 25
 667 384 l 25x41
 542 384 l 25
 542 467 l 25
792 467 m 25x1040
 917 467 l 25
 917 384 l 25
 792 384 l 25
 792 467 l 25x1040
167 384 m 25x28
 292 384 l 25
 292 300 l 25x88
 167 300 l 25
 167 384 l 25x28
417 384 m 25x82
 542 384 l 25
 542 300 l 25x22
 417 300 l 25x84
 417 384 l 25x82
542 384 m 25
 667 384 l 25
 667 300 l 25x81
 542 300 l 25
 542 384 l 25
792 384 m 25x8040
 917 384 l 25
 917 300 l 25x2040
 792 300 l 25x8080
 792 384 l 25x8040
292 300 m 25x88
 417 300 l 25x84
 417 217 l 25
 292 217 l 25x44
 292 300 l 25x88
417 300 m 25
 542 300 l 25x22
 542 217 l 25x42
 417 217 l 25x44
 417 300 l 25
542 300 m 25
 667 300 l 25x81
 667 217 l 25x41
 542 217 l 25x42
 542 300 l 25
667 300 m 25
 792 300 l 25x8080
 792 217 l 25x4080
 667 217 l 25x41
 667 300 l 25
292 217 m 25x44
 417 217 l 25
 417 134 l 25
 292 134 l 25
 292 217 l 25x44
667 217 m 25x41
 792 217 l 25
 792 134 l 25
 667 134 l 25x4080
 667 217 l 25x41
292 134 m 25x84
 417 134 l 25
 417 50 l 25
 292 50 l 25
 292 134 l 25x84
667 134 m 25x8080
 792 134 l 25
 792 50 l 25
 667 50 l 25
 667 134 l 25x8080
EndSplineSet
EndChar

StartChar: X
Encoding: 88 88 56
Width: 1084
VWidth: 0
Flags: HW
HStem: 50 84<167 292 792 917> 134 83<292 417 667 792> 217 250<417 667> 467 167<292 417 667 792>
VStem: 167 125<50 134> 292 125<134 217 467 634> 417 125<217 467> 542 125<217 467> 667 125<134 217 467 634> 792 125<50 134>
LayerCount: 2
Fore
SplineSet
292 634 m 25x14
 417 634 l 25
 417 550 l 25
 292 550 l 25
 292 634 l 25x14
667 634 m 25x1080
 792 634 l 25
 792 550 l 25
 667 550 l 25
 667 634 l 25x1080
292 550 m 25x14
 417 550 l 25
 417 467 l 25x24
 292 467 l 25
 292 550 l 25x14
667 550 m 25x2080
 792 550 l 25
 792 467 l 25x1080
 667 467 l 25x21
 667 550 l 25x2080
417 467 m 25x24
 542 467 l 25
 542 384 l 25
 417 384 l 25x22
 417 467 l 25x24
542 467 m 25
 667 467 l 25
 667 384 l 25x21
 542 384 l 25
 542 467 l 25
417 384 m 25x02
 542 384 l 25
 542 300 l 25
 417 300 l 25
 417 384 l 25x02
542 384 m 25
 667 384 l 25
 667 300 l 25x01
 542 300 l 25
 542 384 l 25
417 300 m 25x42
 542 300 l 25
 542 217 l 25x22
 417 217 l 25x44
 417 300 l 25x42
542 300 m 25
 667 300 l 25
 667 217 l 25x41
 542 217 l 25
 542 300 l 25
292 217 m 25x44
 417 217 l 25
 417 134 l 25x44
 292 134 l 25x88
 292 217 l 25x44
667 217 m 25x41
 792 217 l 25x4080
 792 134 l 25x8080
 667 134 l 25x4080
 667 217 l 25x41
167 134 m 25x88
 292 134 l 25
 292 50 l 25
 167 50 l 25
 167 134 l 25x88
792 134 m 25x8080
 917 134 l 25
 917 50 l 25
 792 50 l 25x8040
 792 134 l 25x8080
EndSplineSet
EndChar

StartChar: Y
Encoding: 89 89 57
Width: 1084
VWidth: 0
Flags: HW
HStem: 50 21G<417 542> 300 167<542 667> 467 83<292 417 667 792> 550 84<167 292 792 917>
VStem: 167 125<550 634> 292 125<467 550> 417 125<50 467> 542 125<300 467> 667 125<467 550> 792 125<550 634>
LayerCount: 2
Fore
SplineSet
167 634 m 25x98
 292 634 l 25x98
 292 550 l 25xa8
 167 550 l 25
 167 634 l 25x98
792 634 m 25x9040
 917 634 l 25
 917 550 l 25x9040
 792 550 l 25xa080
 792 634 l 25x9040
292 550 m 25xa8
 417 550 l 25
 417 467 l 25
 292 467 l 25xa4
 292 550 l 25xa8
667 550 m 25xa080
 792 550 l 25
 792 467 l 25xa080
 667 467 l 25xc1
 667 550 l 25xa080
417 467 m 25xa4
 542 467 l 25
 542 384 l 25
 417 384 l 25xc2
 417 467 l 25xa4
542 467 m 25
 667 467 l 25
 667 384 l 25xc1
 542 384 l 25
 542 467 l 25
417 384 m 25xc2
 542 384 l 25
 542 300 l 25
 417 300 l 25
 417 384 l 25xc2
542 384 m 25
 667 384 l 25
 667 300 l 25xc1
 542 300 l 25
 542 384 l 25
417 300 m 25xc2
 542 300 l 25
 542 217 l 25
 417 217 l 25
 417 300 l 25xc2
417 217 m 25
 542 217 l 25
 542 134 l 25
 417 134 l 25
 417 217 l 25
417 134 m 25
 542 134 l 25
 542 50 l 25
 417 50 l 25
 417 134 l 25
EndSplineSet
EndChar

StartChar: Z
Encoding: 90 90 58
Width: 1084
VWidth: 0
Flags: HW
HStem: 50 167<292 417> 50 84<167 292 417 917> 217 167<417 542> 384 83<542 667> 467 167<667 792> 550 84<292 667>
VStem: 167 125<50 134> 292 125<50 217 550 634> 417 125<50 134 217 384 550 634> 542 125<50 134 384 467 550 634> 667 125<50 134 467 634> 792 125<50 134>
LayerCount: 2
Fore
SplineSet
292 634 m 25x05
 417 634 l 25
 417 550 l 25
 292 550 l 25
 292 634 l 25x05
417 634 m 25
 542 634 l 25
 542 550 l 25x0480
 417 550 l 25
 417 634 l 25
542 634 m 25
 667 634 l 25x0840
 667 550 l 25x0440
 542 550 l 25
 542 634 l 25
667 634 m 25
 792 634 l 25x0820
 792 550 l 25x0420
 667 550 l 25x0440
 667 634 l 25
667 550 m 25x1440
 792 550 l 25x1420
 792 467 l 25x0820
 667 467 l 25
 667 550 l 25x1440
542 467 m 25x1040
 667 467 l 25
 667 384 l 25x1040
 542 384 l 25x2080
 542 467 l 25x1040
417 384 m 25x2080
 542 384 l 25
 542 300 l 25
 417 300 l 25
 417 384 l 25x2080
417 300 m 25
 542 300 l 25
 542 217 l 25x2080
 417 217 l 25x81
 417 300 l 25
292 217 m 25x81
 417 217 l 25x81
 417 134 l 25x41
 292 134 l 25x42
 292 217 l 25x81
167 134 m 25x42
 292 134 l 25x42
 292 50 l 25x82
 167 50 l 25
 167 134 l 25x42
292 134 m 25
 417 134 l 25x41
 417 50 l 25x81
 292 50 l 25x82
 292 134 l 25
417 134 m 25
 542 134 l 25
 542 50 l 25x4080
 417 50 l 25x81
 417 134 l 25
542 134 m 25
 667 134 l 25
 667 50 l 25x4040
 542 50 l 25
 542 134 l 25
667 134 m 25
 792 134 l 25
 792 50 l 25x4020
 667 50 l 25
 667 134 l 25
792 134 m 25
 917 134 l 25
 917 50 l 25x4010
 792 50 l 25
 792 134 l 25
EndSplineSet
EndChar

StartChar: bracketleft
Encoding: 91 91 59
Width: 709
VWidth: 0
Flags: HW
HStem: -116 83<292 542> 30 20G<167 292> 50 21G<167 292> 447 20G<167 292> 467 21G<167 292> 550 84<292 542>
VStem: 167 125<-116 634> 292 125<-116 -33 550 634> 417 125<-116 -33 550 634>
LayerCount: 2
Fore
SplineSet
167 634 m 25x86
 292 634 l 25
 292 550 l 25
 167 550 l 25
 167 634 l 25x86
292 634 m 25
 417 634 l 25
 417 550 l 25x85
 292 550 l 25
 292 634 l 25
417 634 m 25
 542 634 l 25
 542 550 l 25x8480
 417 550 l 25
 417 634 l 25
167 550 m 25x96
 292 550 l 25
 292 467 l 25
 167 467 l 25
 167 550 l 25x96
167 467 m 25
 292 467 l 25
 292 384 l 25
 167 384 l 25
 167 467 l 25
167 384 m 25
 292 384 l 25
 292 300 l 25
 167 300 l 25
 167 384 l 25
167 300 m 25
 292 300 l 25
 292 217 l 25
 167 217 l 25
 167 300 l 25
167 217 m 25
 292 217 l 25
 292 134 l 25
 167 134 l 25
 167 217 l 25
167 134 m 25
 292 134 l 25
 292 50 l 25
 167 50 l 25xc6
 167 134 l 25
167 50 m 25
 292 50 l 25
 292 -33 l 25
 167 -33 l 25
 167 50 l 25
167 -33 m 25
 292 -33 l 25
 292 -116 l 25
 167 -116 l 25
 167 -33 l 25
292 -33 m 25
 417 -33 l 25
 417 -116 l 25x85
 292 -116 l 25
 292 -33 l 25
417 -33 m 25
 542 -33 l 25
 542 -116 l 25x8480
 417 -116 l 25
 417 -33 l 25
EndSplineSet
EndChar

StartChar: backslash
Encoding: 92 92 60
Width: 834
VWidth: 0
Flags: HW
HStem: 50 167<542 667> 217 83<417 542> 300 167<292 417> 467 167<167 292>
VStem: 167 125<467 634> 292 125<300 467> 417 125<217 300> 542 125<50 217>
LayerCount: 2
Fore
SplineSet
167 634 m 25x18
 292 634 l 25
 292 550 l 25
 167 550 l 25
 167 634 l 25x18
167 550 m 25
 292 550 l 25
 292 467 l 25x28
 167 467 l 25
 167 550 l 25
292 467 m 25
 417 467 l 25
 417 384 l 25
 292 384 l 25x24
 292 467 l 25
292 384 m 25
 417 384 l 25
 417 300 l 25x44
 292 300 l 25
 292 384 l 25
417 300 m 25
 542 300 l 25x42
 542 217 l 25x82
 417 217 l 25x42
 417 300 l 25
542 217 m 25x82
 667 217 l 25
 667 134 l 25
 542 134 l 25x81
 542 217 l 25x82
542 134 m 25
 667 134 l 25
 667 50 l 25
 542 50 l 25
 542 134 l 25
EndSplineSet
EndChar

StartChar: bracketright
Encoding: 93 93 61
Width: 709
VWidth: 0
Flags: HW
HStem: -116 83<167 417> 30 20G<417 542> 50 21G<417 542> 447 20G<417 542> 467 21G<417 542> 550 84<167 417>
VStem: 167 125<-116 -33 550 634> 292 125<-116 -33 550 634> 417 125<-116 634>
LayerCount: 2
Fore
SplineSet
167 634 m 25x86
 292 634 l 25
 292 550 l 25
 167 550 l 25
 167 634 l 25x86
292 634 m 25
 417 634 l 25
 417 550 l 25x85
 292 550 l 25
 292 634 l 25
417 634 m 25
 542 634 l 25
 542 550 l 25x8480
 417 550 l 25
 417 634 l 25
417 550 m 25x95
 542 550 l 25
 542 467 l 25
 417 467 l 25x9480
 417 550 l 25x95
417 467 m 25
 542 467 l 25
 542 384 l 25
 417 384 l 25
 417 467 l 25
417 384 m 25
 542 384 l 25
 542 300 l 25
 417 300 l 25
 417 384 l 25
417 300 m 25
 542 300 l 25
 542 217 l 25
 417 217 l 25
 417 300 l 25
417 217 m 25
 542 217 l 25
 542 134 l 25
 417 134 l 25
 417 217 l 25
417 134 m 25
 542 134 l 25
 542 50 l 25
 417 50 l 25xc480
 417 134 l 25
417 50 m 25
 542 50 l 25
 542 -33 l 25xc480
 417 -33 l 25xc5
 417 50 l 25
167 -33 m 25x86
 292 -33 l 25
 292 -116 l 25
 167 -116 l 25
 167 -33 l 25x86
292 -33 m 25
 417 -33 l 25
 417 -116 l 25x85
 292 -116 l 25
 292 -33 l 25
417 -33 m 25
 542 -33 l 25
 542 -116 l 25x8480
 417 -116 l 25
 417 -33 l 25
EndSplineSet
EndChar

StartChar: asciicircum
Encoding: 94 94 62
Width: 834
VWidth: 0
Flags: HW
HStem: 300 167<167 292 542 667> 467 167<292 542>
VStem: 167 125<300 467> 292 125<467 634> 417 125<467 634> 542 125<300 467>
LayerCount: 2
Fore
SplineSet
292 634 m 25x50
 417 634 l 25
 417 550 l 25
 292 550 l 25
 292 634 l 25x50
417 634 m 25
 542 634 l 25
 542 550 l 25x48
 417 550 l 25
 417 634 l 25
292 550 m 25x90
 417 550 l 25
 417 467 l 25x50
 292 467 l 25xa0
 292 550 l 25x90
417 550 m 25
 542 550 l 25
 542 467 l 25x88
 417 467 l 25
 417 550 l 25
167 467 m 25xa0
 292 467 l 25
 292 384 l 25
 167 384 l 25
 167 467 l 25xa0
542 467 m 25x88
 667 467 l 25
 667 384 l 25
 542 384 l 25x84
 542 467 l 25x88
167 384 m 25xa0
 292 384 l 25
 292 300 l 25
 167 300 l 25
 167 384 l 25xa0
542 384 m 25x84
 667 384 l 25
 667 300 l 25
 542 300 l 25
 542 384 l 25x84
EndSplineSet
EndChar

StartChar: underscore
Encoding: 95 95 63
Width: 1084
VWidth: 0
Flags: HW
HStem: -116 83<167 917>
VStem: 167 125<-116 -33> 292 125<-116 -33> 417 125<-116 -33> 542 125<-116 -33> 667 125<-116 -33> 792 125<-116 -33>
LayerCount: 2
Fore
SplineSet
167 -33 m 25xc0
 292 -33 l 25
 292 -116 l 25
 167 -116 l 25
 167 -33 l 25xc0
292 -33 m 25
 417 -33 l 25
 417 -116 l 25xa0
 292 -116 l 25
 292 -33 l 25
417 -33 m 25
 542 -33 l 25
 542 -116 l 25x90
 417 -116 l 25
 417 -33 l 25
542 -33 m 25
 667 -33 l 25
 667 -116 l 25x88
 542 -116 l 25
 542 -33 l 25
667 -33 m 25
 792 -33 l 25
 792 -116 l 25x84
 667 -116 l 25
 667 -33 l 25
792 -33 m 25
 917 -33 l 25
 917 -116 l 25x82
 792 -116 l 25
 792 -33 l 25
EndSplineSet
EndChar

StartChar: grave
Encoding: 96 96 64
Width: 584
VWidth: 0
Flags: HW
HStem: 550 84<292 417> 634 83<167 292>
VStem: 167 125<634 717> 292 125<550 634>
LayerCount: 2
Fore
SplineSet
167 717 m 25x60
 292 717 l 25x60
 292 634 l 25xa0
 167 634 l 25
 167 717 l 25x60
292 634 m 25xa0
 417 634 l 25
 417 550 l 25
 292 550 l 25x90
 292 634 l 25xa0
EndSplineSet
EndChar

StartChar: a
Encoding: 97 97 65
Width: 959
VWidth: 0
Flags: HW
HStem: 50 84<292 542 667 792> 217 83<292 542> 384 83<167 542>
VStem: 167 125<50 300 384 467> 292 125<50 134 217 300 384 467> 417 125<50 134 217 300 384 467> 542 125<50 467> 667 125<50 134>
LayerCount: 2
Fore
SplineSet
167 467 m 25xf0
 292 467 l 25
 292 384 l 25
 167 384 l 25
 167 467 l 25xf0
292 467 m 25
 417 467 l 25
 417 384 l 25xe8
 292 384 l 25
 292 467 l 25
417 467 m 25
 542 467 l 25
 542 384 l 25xe4
 417 384 l 25
 417 467 l 25
542 467 m 25
 667 467 l 25
 667 384 l 25xe2
 542 384 l 25
 542 467 l 25
542 384 m 25xe4
 667 384 l 25
 667 300 l 25xe2
 542 300 l 25
 542 384 l 25xe4
167 300 m 25xf0
 292 300 l 25
 292 217 l 25
 167 217 l 25
 167 300 l 25xf0
292 300 m 25
 417 300 l 25
 417 217 l 25xe8
 292 217 l 25
 292 300 l 25
417 300 m 25
 542 300 l 25
 542 217 l 25xe4
 417 217 l 25
 417 300 l 25
542 300 m 25
 667 300 l 25
 667 217 l 25xe2
 542 217 l 25
 542 300 l 25
167 217 m 25xf0
 292 217 l 25
 292 134 l 25
 167 134 l 25
 167 217 l 25xf0
542 217 m 25xe4
 667 217 l 25
 667 134 l 25xe2
 542 134 l 25
 542 217 l 25xe4
167 134 m 25xf0
 292 134 l 25
 292 50 l 25
 167 50 l 25
 167 134 l 25xf0
292 134 m 25
 417 134 l 25
 417 50 l 25xe8
 292 50 l 25
 292 134 l 25
417 134 m 25
 542 134 l 25
 542 50 l 25xe4
 417 50 l 25
 417 134 l 25
542 134 m 25
 667 134 l 25
 667 50 l 25xe2
 542 50 l 25
 542 134 l 25
667 134 m 25
 792 134 l 25
 792 50 l 25xe1
 667 50 l 25
 667 134 l 25
EndSplineSet
EndChar

StartChar: b
Encoding: 98 98 66
Width: 834
VWidth: 0
Flags: HW
HStem: 50 84<292 542> 384 83<292 542> 467 21G<167 292> 614 20G<167 292>
VStem: 167 125<50 634> 292 125<50 134 384 467> 417 125<50 134 384 467> 542 125<50 467>
LayerCount: 2
Fore
SplineSet
167 634 m 25x98
 292 634 l 25
 292 550 l 25
 167 550 l 25
 167 634 l 25x98
167 550 m 25
 292 550 l 25
 292 467 l 25xd8
 167 467 l 25xb8
 167 550 l 25
167 467 m 25xb8
 292 467 l 25
 292 384 l 25
 167 384 l 25xd8
 167 467 l 25xb8
292 467 m 25
 417 467 l 25
 417 384 l 25xd4
 292 384 l 25
 292 467 l 25
417 467 m 25
 542 467 l 25
 542 384 l 25xd2
 417 384 l 25
 417 467 l 25
542 467 m 25
 667 467 l 25xb1
 667 384 l 25xd1
 542 384 l 25
 542 467 l 25
167 384 m 25xd8
 292 384 l 25
 292 300 l 25
 167 300 l 25
 167 384 l 25xd8
542 384 m 25xd2
 667 384 l 25
 667 300 l 25
 542 300 l 25xd1
 542 384 l 25xd2
167 300 m 25x98
 292 300 l 25
 292 217 l 25
 167 217 l 25
 167 300 l 25x98
542 300 m 25x91
 667 300 l 25
 667 217 l 25
 542 217 l 25
 542 300 l 25x91
167 217 m 25x98
 292 217 l 25
 292 134 l 25
 167 134 l 25
 167 217 l 25x98
542 217 m 25x91
 667 217 l 25
 667 134 l 25x91
 542 134 l 25x92
 542 217 l 25x91
167 134 m 25x98
 292 134 l 25
 292 50 l 25
 167 50 l 25
 167 134 l 25x98
292 134 m 25
 417 134 l 25
 417 50 l 25x94
 292 50 l 25
 292 134 l 25
417 134 m 25
 542 134 l 25
 542 50 l 25x92
 417 50 l 25
 417 134 l 25
542 134 m 25
 667 134 l 25
 667 50 l 25x91
 542 50 l 25
 542 134 l 25
EndSplineSet
EndChar

StartChar: c
Encoding: 99 99 67
Width: 834
VWidth: 0
Flags: HW
HStem: 50 84<292 667> 384 83<292 667>
VStem: 167 125<50 467> 292 125<50 134 384 467> 417 125<50 134 384 467> 542 125<50 134 384 467>
LayerCount: 2
Fore
SplineSet
167 467 m 25xe0
 292 467 l 25
 292 384 l 25
 167 384 l 25
 167 467 l 25xe0
292 467 m 25
 417 467 l 25
 417 384 l 25xd0
 292 384 l 25
 292 467 l 25
417 467 m 25
 542 467 l 25
 542 384 l 25xc8
 417 384 l 25
 417 467 l 25
542 467 m 25
 667 467 l 25
 667 384 l 25xc4
 542 384 l 25
 542 467 l 25
167 384 m 25xe0
 292 384 l 25
 292 300 l 25
 167 300 l 25
 167 384 l 25xe0
167 300 m 25
 292 300 l 25
 292 217 l 25
 167 217 l 25
 167 300 l 25
167 217 m 25
 292 217 l 25
 292 134 l 25
 167 134 l 25
 167 217 l 25
167 134 m 25
 292 134 l 25
 292 50 l 25
 167 50 l 25
 167 134 l 25
292 134 m 25
 417 134 l 25
 417 50 l 25xd0
 292 50 l 25
 292 134 l 25
417 134 m 25
 542 134 l 25
 542 50 l 25xc8
 417 50 l 25
 417 134 l 25
542 134 m 25
 667 134 l 25
 667 50 l 25xc4
 542 50 l 25
 542 134 l 25
EndSplineSet
EndChar

StartChar: d
Encoding: 100 100 68
Width: 834
VWidth: 0
Flags: HW
HStem: 50 84<292 542> 384 83<292 542> 467 21G<542 667> 614 20G<542 667>
VStem: 167 125<50 467> 292 125<50 134 384 467> 417 125<50 134 384 467> 542 125<50 634>
LayerCount: 2
Fore
SplineSet
542 634 m 25x91
 667 634 l 25
 667 550 l 25
 542 550 l 25
 542 634 l 25x91
542 550 m 25
 667 550 l 25
 667 467 l 25xb1
 542 467 l 25xd2
 542 550 l 25
167 467 m 25xb8
 292 467 l 25
 292 384 l 25
 167 384 l 25xd8
 167 467 l 25xb8
292 467 m 25
 417 467 l 25
 417 384 l 25xd4
 292 384 l 25
 292 467 l 25
417 467 m 25
 542 467 l 25
 542 384 l 25xd2
 417 384 l 25
 417 467 l 25
542 467 m 25
 667 467 l 25xb1
 667 384 l 25xd1
 542 384 l 25
 542 467 l 25
167 384 m 25xd8
 292 384 l 25
 292 300 l 25
 167 300 l 25
 167 384 l 25xd8
542 384 m 25xd2
 667 384 l 25
 667 300 l 25
 542 300 l 25xd1
 542 384 l 25xd2
167 300 m 25x98
 292 300 l 25
 292 217 l 25
 167 217 l 25
 167 300 l 25x98
542 300 m 25x91
 667 300 l 25
 667 217 l 25
 542 217 l 25
 542 300 l 25x91
167 217 m 25x98
 292 217 l 25
 292 134 l 25
 167 134 l 25
 167 217 l 25x98
542 217 m 25x91
 667 217 l 25
 667 134 l 25x91
 542 134 l 25x92
 542 217 l 25x91
167 134 m 25x98
 292 134 l 25
 292 50 l 25
 167 50 l 25
 167 134 l 25x98
292 134 m 25
 417 134 l 25
 417 50 l 25x94
 292 50 l 25
 292 134 l 25
417 134 m 25
 542 134 l 25
 542 50 l 25x92
 417 50 l 25
 417 134 l 25
542 134 m 25
 667 134 l 25
 667 50 l 25x91
 542 50 l 25
 542 134 l 25
EndSplineSet
EndChar

StartChar: e
Encoding: 101 101 69
Width: 834
VWidth: 0
Flags: HW
HStem: 50 84<292 667> 217 83<292 542> 384 83<292 542>
VStem: 167 125<50 467> 292 125<50 134 217 300 384 467> 417 125<50 134 217 300 384 467> 542 125<50 134 217 467>
LayerCount: 2
Fore
SplineSet
167 467 m 25xf0
 292 467 l 25
 292 384 l 25
 167 384 l 25
 167 467 l 25xf0
292 467 m 25
 417 467 l 25
 417 384 l 25xe8
 292 384 l 25
 292 467 l 25
417 467 m 25
 542 467 l 25
 542 384 l 25xe4
 417 384 l 25
 417 467 l 25
542 467 m 25
 667 467 l 25
 667 384 l 25xe2
 542 384 l 25
 542 467 l 25
167 384 m 25xf0
 292 384 l 25
 292 300 l 25
 167 300 l 25
 167 384 l 25xf0
542 384 m 25xe4
 667 384 l 25
 667 300 l 25xe2
 542 300 l 25
 542 384 l 25xe4
167 300 m 25xf0
 292 300 l 25
 292 217 l 25
 167 217 l 25
 167 300 l 25xf0
292 300 m 25
 417 300 l 25
 417 217 l 25xe8
 292 217 l 25
 292 300 l 25
417 300 m 25
 542 300 l 25
 542 217 l 25xe4
 417 217 l 25
 417 300 l 25
542 300 m 25
 667 300 l 25
 667 217 l 25xe2
 542 217 l 25
 542 300 l 25
167 217 m 25xf0
 292 217 l 25
 292 134 l 25
 167 134 l 25
 167 217 l 25xf0
167 134 m 25
 292 134 l 25
 292 50 l 25
 167 50 l 25
 167 134 l 25
292 134 m 25
 417 134 l 25
 417 50 l 25xe8
 292 50 l 25
 292 134 l 25
417 134 m 25
 542 134 l 25
 542 50 l 25xe4
 417 50 l 25
 417 134 l 25
542 134 m 25
 667 134 l 25
 667 50 l 25xe2
 542 50 l 25
 542 134 l 25
EndSplineSet
EndChar

StartChar: f
Encoding: 102 102 70
Width: 834
VWidth: 0
Flags: HW
HStem: 50 21G<292 417> 384 83<167 292 417 667> 467 21G<292 417> 550 84<417 667>
VStem: 167 125<384 467> 292 125<50 634> 417 125<384 467 550 634> 542 125<384 467 550 634>
LayerCount: 2
Fore
SplineSet
292 634 m 25x94
 417 634 l 25
 417 550 l 25
 292 550 l 25
 292 634 l 25x94
417 634 m 25
 542 634 l 25
 542 550 l 25x92
 417 550 l 25
 417 634 l 25
542 634 m 25
 667 634 l 25
 667 550 l 25x91
 542 550 l 25
 542 634 l 25
292 550 m 25xd4
 417 550 l 25
 417 467 l 25xd4
 292 467 l 25xd8
 292 550 l 25xd4
167 467 m 25xd8
 292 467 l 25
 292 384 l 25
 167 384 l 25
 167 467 l 25xd8
292 467 m 25
 417 467 l 25
 417 384 l 25xd4
 292 384 l 25
 292 467 l 25
417 467 m 25
 542 467 l 25
 542 384 l 25xd2
 417 384 l 25
 417 467 l 25
542 467 m 25
 667 467 l 25
 667 384 l 25xd1
 542 384 l 25
 542 467 l 25
292 384 m 25xd8
 417 384 l 25
 417 300 l 25
 292 300 l 25xd4
 292 384 l 25xd8
292 300 m 25
 417 300 l 25
 417 217 l 25
 292 217 l 25
 292 300 l 25
292 217 m 25
 417 217 l 25
 417 134 l 25
 292 134 l 25
 292 217 l 25
292 134 m 25
 417 134 l 25
 417 50 l 25
 292 50 l 25
 292 134 l 25
EndSplineSet
EndChar

StartChar: g
Encoding: 103 103 71
Width: 834
VWidth: 0
Flags: HW
HStem: -116 83<167 542> 30 20G<542 667> 50 84<292 542> 384 83<292 542>
VStem: 167 125<-116 -33 50 467> 292 125<-116 -33 50 134 384 467> 417 125<-116 -33 50 134 384 467> 542 125<-116 467>
LayerCount: 2
Fore
SplineSet
167 467 m 25x98
 292 467 l 25
 292 384 l 25
 167 384 l 25
 167 467 l 25x98
292 467 m 25
 417 467 l 25
 417 384 l 25x94
 292 384 l 25
 292 467 l 25
417 467 m 25
 542 467 l 25
 542 384 l 25x92
 417 384 l 25
 417 467 l 25
542 467 m 25
 667 467 l 25
 667 384 l 25x91
 542 384 l 25
 542 467 l 25
167 384 m 25x98
 292 384 l 25
 292 300 l 25
 167 300 l 25
 167 384 l 25x98
542 384 m 25x92
 667 384 l 25
 667 300 l 25
 542 300 l 25x91
 542 384 l 25x92
167 300 m 25x98
 292 300 l 25
 292 217 l 25
 167 217 l 25
 167 300 l 25x98
542 300 m 25x91
 667 300 l 25
 667 217 l 25
 542 217 l 25
 542 300 l 25x91
167 217 m 25xb8
 292 217 l 25
 292 134 l 25
 167 134 l 25
 167 217 l 25xb8
542 217 m 25xb1
 667 217 l 25
 667 134 l 25xb1
 542 134 l 25xb2
 542 217 l 25xb1
167 134 m 25xb8
 292 134 l 25
 292 50 l 25
 167 50 l 25
 167 134 l 25xb8
292 134 m 25
 417 134 l 25
 417 50 l 25xb4
 292 50 l 25
 292 134 l 25
417 134 m 25
 542 134 l 25xb2
 542 50 l 25xd2
 417 50 l 25
 417 134 l 25
542 134 m 25
 667 134 l 25xb1
 667 50 l 25xd1
 542 50 l 25xd2
 542 134 l 25
542 50 m 25xd2
 667 50 l 25
 667 -33 l 25xd1
 542 -33 l 25
 542 50 l 25xd2
167 -33 m 25x98
 292 -33 l 25
 292 -116 l 25
 167 -116 l 25
 167 -33 l 25x98
292 -33 m 25
 417 -33 l 25
 417 -116 l 25x94
 292 -116 l 25
 292 -33 l 25
417 -33 m 25
 542 -33 l 25
 542 -116 l 25x92
 417 -116 l 25
 417 -33 l 25
542 -33 m 25
 667 -33 l 25
 667 -116 l 25x91
 542 -116 l 25
 542 -33 l 25
EndSplineSet
EndChar

StartChar: h
Encoding: 104 104 72
Width: 834
VWidth: 0
Flags: HW
HStem: 50 21G<167 292 542 667> 384 83<292 542> 467 21G<167 292> 614 20G<167 292>
VStem: 167 125<50 634> 292 125<384 467> 417 125<384 467> 542 125<50 467>
LayerCount: 2
Fore
SplineSet
167 634 m 25x98
 292 634 l 25
 292 550 l 25
 167 550 l 25
 167 634 l 25x98
167 550 m 25
 292 550 l 25
 292 467 l 25xd8
 167 467 l 25xb8
 167 550 l 25
167 467 m 25xb8
 292 467 l 25
 292 384 l 25
 167 384 l 25xd8
 167 467 l 25xb8
292 467 m 25
 417 467 l 25
 417 384 l 25xd4
 292 384 l 25
 292 467 l 25
417 467 m 25
 542 467 l 25
 542 384 l 25xd2
 417 384 l 25
 417 467 l 25
542 467 m 25
 667 467 l 25xb1
 667 384 l 25xd1
 542 384 l 25
 542 467 l 25
167 384 m 25xd8
 292 384 l 25
 292 300 l 25
 167 300 l 25
 167 384 l 25xd8
542 384 m 25xd2
 667 384 l 25
 667 300 l 25
 542 300 l 25xd1
 542 384 l 25xd2
167 300 m 25x98
 292 300 l 25
 292 217 l 25
 167 217 l 25
 167 300 l 25x98
542 300 m 25x91
 667 300 l 25
 667 217 l 25
 542 217 l 25
 542 300 l 25x91
167 217 m 25x98
 292 217 l 25
 292 134 l 25
 167 134 l 25
 167 217 l 25x98
542 217 m 25x91
 667 217 l 25
 667 134 l 25
 542 134 l 25
 542 217 l 25x91
167 134 m 25x98
 292 134 l 25
 292 50 l 25
 167 50 l 25
 167 134 l 25x98
542 134 m 25x91
 667 134 l 25
 667 50 l 25
 542 50 l 25
 542 134 l 25x91
EndSplineSet
EndChar

StartChar: i
Encoding: 105 105 73
Width: 959
VWidth: 0
Flags: HW
HStem: 50 84<167 417 542 792> 384 83<167 417> 550 84<417 542>
VStem: 167 125<50 134 384 467> 292 125<50 134 384 467> 417 125<50 467 550 634> 542 125<50 134> 667 125<50 134>
LayerCount: 2
Fore
SplineSet
417 634 m 25xe4
 542 634 l 25
 542 550 l 25
 417 550 l 25
 417 634 l 25xe4
167 467 m 25xf0
 292 467 l 25
 292 384 l 25
 167 384 l 25
 167 467 l 25xf0
292 467 m 25
 417 467 l 25
 417 384 l 25xe8
 292 384 l 25
 292 467 l 25
417 467 m 25
 542 467 l 25
 542 384 l 25xe4
 417 384 l 25
 417 467 l 25
417 384 m 25xe8
 542 384 l 25
 542 300 l 25
 417 300 l 25xe4
 417 384 l 25xe8
417 300 m 25
 542 300 l 25
 542 217 l 25
 417 217 l 25
 417 300 l 25
417 217 m 25
 542 217 l 25
 542 134 l 25xe4
 417 134 l 25xe8
 417 217 l 25
167 134 m 25xf0
 292 134 l 25
 292 50 l 25
 167 50 l 25
 167 134 l 25xf0
292 134 m 25
 417 134 l 25
 417 50 l 25xe8
 292 50 l 25
 292 134 l 25
417 134 m 25
 542 134 l 25
 542 50 l 25xe4
 417 50 l 25
 417 134 l 25
542 134 m 25
 667 134 l 25
 667 50 l 25xe2
 542 50 l 25
 542 134 l 25
667 134 m 25
 792 134 l 25
 792 50 l 25xe1
 667 50 l 25
 667 134 l 25
EndSplineSet
EndChar

StartChar: j
Encoding: 106 106 74
Width: 709
VWidth: 0
Flags: HW
HStem: -116 83<167 417> 30 20G<417 542> 50 21G<417 542> 384 83<167 417> 550 84<417 542>
VStem: 167 125<-116 -33 384 467> 292 125<-116 -33 384 467> 417 125<-116 467 550 634>
LayerCount: 2
Fore
SplineSet
417 634 m 25x99
 542 634 l 25
 542 550 l 25
 417 550 l 25
 417 634 l 25x99
167 467 m 25x9c
 292 467 l 25
 292 384 l 25
 167 384 l 25
 167 467 l 25x9c
292 467 m 25
 417 467 l 25
 417 384 l 25x9a
 292 384 l 25
 292 467 l 25
417 467 m 25
 542 467 l 25
 542 384 l 25x99
 417 384 l 25
 417 467 l 25
417 384 m 25x9a
 542 384 l 25
 542 300 l 25
 417 300 l 25x99
 417 384 l 25x9a
417 300 m 25
 542 300 l 25
 542 217 l 25
 417 217 l 25
 417 300 l 25
417 217 m 25
 542 217 l 25
 542 134 l 25
 417 134 l 25
 417 217 l 25
417 134 m 25
 542 134 l 25
 542 50 l 25
 417 50 l 25xd9
 417 134 l 25
417 50 m 25
 542 50 l 25
 542 -33 l 25xd9
 417 -33 l 25xda
 417 50 l 25
167 -33 m 25x9c
 292 -33 l 25
 292 -116 l 25
 167 -116 l 25
 167 -33 l 25x9c
292 -33 m 25
 417 -33 l 25
 417 -116 l 25x9a
 292 -116 l 25
 292 -33 l 25
417 -33 m 25
 542 -33 l 25
 542 -116 l 25x99
 417 -116 l 25
 417 -33 l 25
EndSplineSet
EndChar

StartChar: k
Encoding: 107 107 75
Width: 834
VWidth: 0
Flags: HW
HStem: 50 84<542 667> 217 83<292 417> 384 83<542 667> 467 21G<167 292> 614 20G<167 292>
VStem: 167 125<50 634> 292 125<217 300> 417 125<134 384> 542 125<50 134 384 467>
LayerCount: 2
Fore
SplineSet
167 634 m 25xcc
 292 634 l 25
 292 550 l 25
 167 550 l 25
 167 634 l 25xcc
167 550 m 25
 292 550 l 25
 292 467 l 25
 167 467 l 25xdc
 167 550 l 25
167 467 m 25
 292 467 l 25xdc
 292 384 l 25
 167 384 l 25xec
 167 467 l 25
542 467 m 25xe880
 667 467 l 25
 667 384 l 25xe880
 542 384 l 25xe9
 542 467 l 25xe880
167 384 m 25xec
 292 384 l 25
 292 300 l 25
 167 300 l 25
 167 384 l 25xec
417 384 m 25xe9
 542 384 l 25
 542 300 l 25xe9
 417 300 l 25xea
 417 384 l 25xe9
167 300 m 25xcc
 292 300 l 25
 292 217 l 25
 167 217 l 25
 167 300 l 25xcc
292 300 m 25
 417 300 l 25
 417 217 l 25xca
 292 217 l 25
 292 300 l 25
417 300 m 25
 542 300 l 25
 542 217 l 25xc9
 417 217 l 25
 417 300 l 25
167 217 m 25xcc
 292 217 l 25
 292 134 l 25
 167 134 l 25
 167 217 l 25xcc
417 217 m 25xca
 542 217 l 25
 542 134 l 25
 417 134 l 25xc9
 417 217 l 25xca
167 134 m 25xcc
 292 134 l 25
 292 50 l 25
 167 50 l 25
 167 134 l 25xcc
542 134 m 25xc9
 667 134 l 25
 667 50 l 25
 542 50 l 25xc880
 542 134 l 25xc9
EndSplineSet
EndChar

StartChar: l
Encoding: 108 108 76
Width: 709
VWidth: 0
Flags: HW
HStem: 50 84<417 542> 447 20G<292 417> 467 21G<292 417> 550 84<167 292>
VStem: 167 125<550 634> 292 125<50 634> 417 125<50 134>
LayerCount: 2
Fore
SplineSet
167 634 m 25x98
 292 634 l 25
 292 550 l 25
 167 550 l 25
 167 634 l 25x98
292 634 m 25
 417 634 l 25
 417 550 l 25x94
 292 550 l 25
 292 634 l 25
292 550 m 25xd8
 417 550 l 25
 417 467 l 25
 292 467 l 25xd4
 292 550 l 25xd8
292 467 m 25
 417 467 l 25
 417 384 l 25
 292 384 l 25
 292 467 l 25
292 384 m 25
 417 384 l 25
 417 300 l 25
 292 300 l 25
 292 384 l 25
292 300 m 25
 417 300 l 25
 417 217 l 25
 292 217 l 25
 292 300 l 25
292 217 m 25
 417 217 l 25
 417 134 l 25
 292 134 l 25
 292 217 l 25
292 134 m 25
 417 134 l 25
 417 50 l 25
 292 50 l 25
 292 134 l 25
417 134 m 25
 542 134 l 25
 542 50 l 25x92
 417 50 l 25
 417 134 l 25
EndSplineSet
EndChar

StartChar: m
Encoding: 109 109 77
Width: 959
VWidth: 0
Flags: HW
HStem: 50 250<167 292 417 542> 300 167<292 417 542 667> 384 83<167 292 417 542>
VStem: 167 125<50 300 384 467> 292 125<300 467> 417 125<50 300 384 467> 542 125<300 467> 667 125<50 467>
LayerCount: 2
Fore
SplineSet
167 467 m 25x30
 292 467 l 25x50
 292 384 l 25
 167 384 l 25
 167 467 l 25x30
292 467 m 25
 417 467 l 25x48
 417 384 l 25x28
 292 384 l 25x30
 292 467 l 25
417 467 m 25
 542 467 l 25x44
 542 384 l 25x24
 417 384 l 25x28
 417 467 l 25
542 467 m 25
 667 467 l 25x42
 667 384 l 25x22
 542 384 l 25x24
 542 467 l 25
667 467 m 25
 792 467 l 25
 792 384 l 25x21
 667 384 l 25x22
 667 467 l 25
292 384 m 25xb0
 417 384 l 25
 417 300 l 25xa8
 292 300 l 25
 292 384 l 25xb0
542 384 m 25xa4
 667 384 l 25xa2
 667 300 l 25x42
 542 300 l 25
 542 384 l 25xa4
667 384 m 25
 792 384 l 25x21
 792 300 l 25x41
 667 300 l 25x42
 667 384 l 25
167 300 m 25x90
 292 300 l 25
 292 217 l 25
 167 217 l 25
 167 300 l 25x90
417 300 m 25x88
 542 300 l 25
 542 217 l 25
 417 217 l 25x84
 417 300 l 25x88
667 300 m 25x42
 792 300 l 25
 792 217 l 25
 667 217 l 25x41
 667 300 l 25x42
167 217 m 25x10
 292 217 l 25
 292 134 l 25
 167 134 l 25
 167 217 l 25x10
417 217 m 25x04
 542 217 l 25
 542 134 l 25
 417 134 l 25
 417 217 l 25x04
667 217 m 25x01
 792 217 l 25
 792 134 l 25
 667 134 l 25
 667 217 l 25x01
167 134 m 25x90
 292 134 l 25
 292 50 l 25
 167 50 l 25
 167 134 l 25x90
417 134 m 25x84
 542 134 l 25
 542 50 l 25
 417 50 l 25
 417 134 l 25x84
667 134 m 25x81
 792 134 l 25
 792 50 l 25
 667 50 l 25
 667 134 l 25x81
EndSplineSet
EndChar

StartChar: n
Encoding: 110 110 78
Width: 834
VWidth: 0
Flags: HW
HStem: 50 21G<167 292 542 667> 384 83<292 542>
VStem: 167 125<50 467> 292 125<384 467> 417 125<384 467> 542 125<50 467>
LayerCount: 2
Fore
SplineSet
167 467 m 25xe0
 292 467 l 25
 292 384 l 25
 167 384 l 25
 167 467 l 25xe0
292 467 m 25
 417 467 l 25
 417 384 l 25xd0
 292 384 l 25
 292 467 l 25
417 467 m 25
 542 467 l 25
 542 384 l 25xc8
 417 384 l 25
 417 467 l 25
542 467 m 25
 667 467 l 25
 667 384 l 25xc4
 542 384 l 25
 542 467 l 25
167 384 m 25xe0
 292 384 l 25
 292 300 l 25
 167 300 l 25
 167 384 l 25xe0
542 384 m 25xc8
 667 384 l 25
 667 300 l 25
 542 300 l 25xc4
 542 384 l 25xc8
167 300 m 25xe0
 292 300 l 25
 292 217 l 25
 167 217 l 25
 167 300 l 25xe0
542 300 m 25xc4
 667 300 l 25
 667 217 l 25
 542 217 l 25
 542 300 l 25xc4
167 217 m 25xe0
 292 217 l 25
 292 134 l 25
 167 134 l 25
 167 217 l 25xe0
542 217 m 25xc4
 667 217 l 25
 667 134 l 25
 542 134 l 25
 542 217 l 25xc4
167 134 m 25xe0
 292 134 l 25
 292 50 l 25
 167 50 l 25
 167 134 l 25xe0
542 134 m 25xc4
 667 134 l 25
 667 50 l 25
 542 50 l 25
 542 134 l 25xc4
EndSplineSet
EndChar

StartChar: o
Encoding: 111 111 79
Width: 834
VWidth: 0
Flags: HW
HStem: 50 84<292 542> 384 83<292 542>
VStem: 167 125<50 467> 292 125<50 134 384 467> 417 125<50 134 384 467> 542 125<50 467>
LayerCount: 2
Fore
SplineSet
167 467 m 25xe0
 292 467 l 25
 292 384 l 25
 167 384 l 25
 167 467 l 25xe0
292 467 m 25
 417 467 l 25
 417 384 l 25xd0
 292 384 l 25
 292 467 l 25
417 467 m 25
 542 467 l 25
 542 384 l 25xc8
 417 384 l 25
 417 467 l 25
542 467 m 25
 667 467 l 25
 667 384 l 25xc4
 542 384 l 25
 542 467 l 25
167 384 m 25xe0
 292 384 l 25
 292 300 l 25
 167 300 l 25
 167 384 l 25xe0
542 384 m 25xc8
 667 384 l 25
 667 300 l 25
 542 300 l 25xc4
 542 384 l 25xc8
167 300 m 25xe0
 292 300 l 25
 292 217 l 25
 167 217 l 25
 167 300 l 25xe0
542 300 m 25xc4
 667 300 l 25
 667 217 l 25
 542 217 l 25
 542 300 l 25xc4
167 217 m 25xe0
 292 217 l 25
 292 134 l 25
 167 134 l 25
 167 217 l 25xe0
542 217 m 25xc4
 667 217 l 25
 667 134 l 25xc4
 542 134 l 25xc8
 542 217 l 25xc4
167 134 m 25xe0
 292 134 l 25
 292 50 l 25
 167 50 l 25
 167 134 l 25xe0
292 134 m 25
 417 134 l 25
 417 50 l 25xd0
 292 50 l 25
 292 134 l 25
417 134 m 25
 542 134 l 25
 542 50 l 25xc8
 417 50 l 25
 417 134 l 25
542 134 m 25
 667 134 l 25
 667 50 l 25xc4
 542 50 l 25
 542 134 l 25
EndSplineSet
EndChar

StartChar: p
Encoding: 112 112 80
Width: 834
VWidth: 0
Flags: HW
HStem: -116 21G<167 292> 30 20G<167 292> 50 84<292 542> 384 83<292 542>
VStem: 167 125<-116 467> 292 125<50 134 384 467> 417 125<50 134 384 467> 542 125<50 467>
LayerCount: 2
Fore
SplineSet
167 467 m 25x98
 292 467 l 25
 292 384 l 25
 167 384 l 25
 167 467 l 25x98
292 467 m 25
 417 467 l 25
 417 384 l 25x94
 292 384 l 25
 292 467 l 25
417 467 m 25
 542 467 l 25
 542 384 l 25x92
 417 384 l 25
 417 467 l 25
542 467 m 25
 667 467 l 25
 667 384 l 25x91
 542 384 l 25
 542 467 l 25
167 384 m 25x98
 292 384 l 25
 292 300 l 25
 167 300 l 25
 167 384 l 25x98
542 384 m 25x92
 667 384 l 25
 667 300 l 25
 542 300 l 25x91
 542 384 l 25x92
167 300 m 25x98
 292 300 l 25
 292 217 l 25
 167 217 l 25
 167 300 l 25x98
542 300 m 25x91
 667 300 l 25
 667 217 l 25
 542 217 l 25
 542 300 l 25x91
167 217 m 25xb8
 292 217 l 25
 292 134 l 25
 167 134 l 25
 167 217 l 25xb8
542 217 m 25xb1
 667 217 l 25
 667 134 l 25xb1
 542 134 l 25xb2
 542 217 l 25xb1
167 134 m 25xb8
 292 134 l 25xb8
 292 50 l 25
 167 50 l 25xd8
 167 134 l 25xb8
292 134 m 25
 417 134 l 25
 417 50 l 25xb4
 292 50 l 25xd8
 292 134 l 25
417 134 m 25
 542 134 l 25
 542 50 l 25xb2
 417 50 l 25
 417 134 l 25
542 134 m 25
 667 134 l 25
 667 50 l 25xb1
 542 50 l 25
 542 134 l 25
167 50 m 25xd8
 292 50 l 25
 292 -33 l 25
 167 -33 l 25
 167 50 l 25xd8
167 -33 m 25
 292 -33 l 25
 292 -116 l 25
 167 -116 l 25
 167 -33 l 25
EndSplineSet
EndChar

StartChar: q
Encoding: 113 113 81
Width: 834
VWidth: 0
Flags: HW
HStem: -116 21G<542 667> 30 20G<542 667> 50 84<292 542> 384 83<292 542>
VStem: 167 125<50 467> 292 125<50 134 384 467> 417 125<50 134 384 467> 542 125<-116 467>
LayerCount: 2
Fore
SplineSet
167 467 m 25x98
 292 467 l 25
 292 384 l 25
 167 384 l 25
 167 467 l 25x98
292 467 m 25
 417 467 l 25
 417 384 l 25x94
 292 384 l 25
 292 467 l 25
417 467 m 25
 542 467 l 25
 542 384 l 25x92
 417 384 l 25
 417 467 l 25
542 467 m 25
 667 467 l 25
 667 384 l 25x91
 542 384 l 25
 542 467 l 25
167 384 m 25x98
 292 384 l 25
 292 300 l 25
 167 300 l 25
 167 384 l 25x98
542 384 m 25x92
 667 384 l 25
 667 300 l 25
 542 300 l 25x91
 542 384 l 25x92
167 300 m 25x98
 292 300 l 25
 292 217 l 25
 167 217 l 25
 167 300 l 25x98
542 300 m 25x91
 667 300 l 25
 667 217 l 25
 542 217 l 25
 542 300 l 25x91
167 217 m 25xb8
 292 217 l 25
 292 134 l 25
 167 134 l 25
 167 217 l 25xb8
542 217 m 25xb1
 667 217 l 25
 667 134 l 25xb1
 542 134 l 25xb2
 542 217 l 25xb1
167 134 m 25xb8
 292 134 l 25
 292 50 l 25
 167 50 l 25
 167 134 l 25xb8
292 134 m 25
 417 134 l 25
 417 50 l 25xb4
 292 50 l 25
 292 134 l 25
417 134 m 25
 542 134 l 25xb2
 542 50 l 25xd2
 417 50 l 25
 417 134 l 25
542 134 m 25
 667 134 l 25xb1
 667 50 l 25xd1
 542 50 l 25xd2
 542 134 l 25
542 50 m 25xd2
 667 50 l 25
 667 -33 l 25
 542 -33 l 25xd1
 542 50 l 25xd2
542 -33 m 25
 667 -33 l 25
 667 -116 l 25
 542 -116 l 25
 542 -33 l 25
EndSplineSet
EndChar

StartChar: r
Encoding: 114 114 82
Width: 834
VWidth: 0
Flags: HW
HStem: 50 21G<167 292> 300 84<292 417> 384 83<417 667>
VStem: 167 125<50 467> 292 125<300 384> 417 125<384 467> 542 125<384 467>
LayerCount: 2
Fore
SplineSet
167 467 m 25xb0
 292 467 l 25xb0
 292 384 l 25xd0
 167 384 l 25
 167 467 l 25xb0
417 467 m 25xa4
 542 467 l 25
 542 384 l 25xa4
 417 384 l 25xc8
 417 467 l 25xa4
542 467 m 25
 667 467 l 25
 667 384 l 25xa2
 542 384 l 25
 542 467 l 25
167 384 m 25xb0
 292 384 l 25
 292 300 l 25
 167 300 l 25xd0
 167 384 l 25xb0
292 384 m 25
 417 384 l 25
 417 300 l 25xc8
 292 300 l 25
 292 384 l 25
167 300 m 25xd0
 292 300 l 25
 292 217 l 25
 167 217 l 25
 167 300 l 25xd0
167 217 m 25
 292 217 l 25
 292 134 l 25
 167 134 l 25
 167 217 l 25
167 134 m 25
 292 134 l 25
 292 50 l 25
 167 50 l 25
 167 134 l 25
EndSplineSet
EndChar

StartChar: s
Encoding: 115 115 83
Width: 834
VWidth: 0
Flags: HW
HStem: 50 84<167 542> 217 83<292 542> 300 167<167 292> 384 83<292 667>
VStem: 167 125<50 134 300 467> 292 125<50 134 217 300 384 467> 417 125<50 134 217 300 384 467> 542 125<50 300 384 467>
LayerCount: 2
Fore
SplineSet
167 467 m 25xa8
 292 467 l 25xa8
 292 384 l 25
 167 384 l 25x98
 167 467 l 25xa8
292 467 m 25
 417 467 l 25
 417 384 l 25x94
 292 384 l 25x98
 292 467 l 25
417 467 m 25
 542 467 l 25
 542 384 l 25x92
 417 384 l 25
 417 467 l 25
542 467 m 25
 667 467 l 25
 667 384 l 25x91
 542 384 l 25
 542 467 l 25
167 384 m 25x98
 292 384 l 25
 292 300 l 25xd8
 167 300 l 25xa8
 167 384 l 25x98
292 300 m 25
 417 300 l 25
 417 217 l 25
 292 217 l 25xc4
 292 300 l 25
417 300 m 25
 542 300 l 25
 542 217 l 25xc2
 417 217 l 25
 417 300 l 25
542 300 m 25
 667 300 l 25xa1
 667 217 l 25xc1
 542 217 l 25
 542 300 l 25
542 217 m 25xc2
 667 217 l 25
 667 134 l 25xc1
 542 134 l 25
 542 217 l 25xc2
167 134 m 25x88
 292 134 l 25
 292 50 l 25
 167 50 l 25
 167 134 l 25x88
292 134 m 25
 417 134 l 25
 417 50 l 25x84
 292 50 l 25
 292 134 l 25
417 134 m 25
 542 134 l 25
 542 50 l 25x82
 417 50 l 25
 417 134 l 25
542 134 m 25
 667 134 l 25
 667 50 l 25x81
 542 50 l 25
 542 134 l 25
EndSplineSet
EndChar

StartChar: t
Encoding: 116 116 84
Width: 834
VWidth: 0
Flags: HW
HStem: 50 84<417 667> 384 83<167 292 417 667> 467 21G<292 417>
VStem: 167 125<384 467> 292 125<50 550> 417 125<50 134 384 467> 542 125<50 134 384 467>
LayerCount: 2
Fore
SplineSet
292 550 m 25xc8
 417 550 l 25
 417 467 l 25xc8
 292 467 l 25xd0
 292 550 l 25xc8
167 467 m 25xd0
 292 467 l 25
 292 384 l 25
 167 384 l 25
 167 467 l 25xd0
292 467 m 25
 417 467 l 25
 417 384 l 25xc8
 292 384 l 25
 292 467 l 25
417 467 m 25
 542 467 l 25
 542 384 l 25xc4
 417 384 l 25
 417 467 l 25
542 467 m 25
 667 467 l 25
 667 384 l 25xc2
 542 384 l 25
 542 467 l 25
292 384 m 25xd0
 417 384 l 25
 417 300 l 25
 292 300 l 25xc8
 292 384 l 25xd0
292 300 m 25
 417 300 l 25
 417 217 l 25
 292 217 l 25
 292 300 l 25
292 217 m 25
 417 217 l 25
 417 134 l 25
 292 134 l 25
 292 217 l 25
292 134 m 25
 417 134 l 25
 417 50 l 25
 292 50 l 25
 292 134 l 25
417 134 m 25
 542 134 l 25
 542 50 l 25x84
 417 50 l 25
 417 134 l 25
542 134 m 25
 667 134 l 25
 667 50 l 25x82
 542 50 l 25
 542 134 l 25
EndSplineSet
EndChar

StartChar: u
Encoding: 117 117 85
Width: 834
VWidth: 0
Flags: HW
HStem: 50 84<292 542> 447 20G<167 292 542 667>
VStem: 167 125<50 467> 292 125<50 134> 417 125<50 134> 542 125<50 467>
LayerCount: 2
Fore
SplineSet
167 467 m 25xe0
 292 467 l 25
 292 384 l 25
 167 384 l 25
 167 467 l 25xe0
542 467 m 25xc4
 667 467 l 25
 667 384 l 25
 542 384 l 25
 542 467 l 25xc4
167 384 m 25xe0
 292 384 l 25
 292 300 l 25
 167 300 l 25
 167 384 l 25xe0
542 384 m 25xc4
 667 384 l 25
 667 300 l 25
 542 300 l 25
 542 384 l 25xc4
167 300 m 25xe0
 292 300 l 25
 292 217 l 25
 167 217 l 25
 167 300 l 25xe0
542 300 m 25xc4
 667 300 l 25
 667 217 l 25
 542 217 l 25
 542 300 l 25xc4
167 217 m 25xe0
 292 217 l 25
 292 134 l 25
 167 134 l 25
 167 217 l 25xe0
542 217 m 25xc4
 667 217 l 25
 667 134 l 25xc4
 542 134 l 25xc8
 542 217 l 25xc4
167 134 m 25xe0
 292 134 l 25
 292 50 l 25
 167 50 l 25
 167 134 l 25xe0
292 134 m 25
 417 134 l 25
 417 50 l 25xd0
 292 50 l 25
 292 134 l 25
417 134 m 25
 542 134 l 25
 542 50 l 25xc8
 417 50 l 25
 417 134 l 25
542 134 m 25
 667 134 l 25
 667 50 l 25xc4
 542 50 l 25
 542 134 l 25
EndSplineSet
EndChar

StartChar: v
Encoding: 118 118 86
Width: 834
VWidth: 0
Flags: HW
HStem: 50 167<292 542> 217 250<167 292 542 667>
VStem: 167 125<217 467> 292 125<50 217> 417 125<50 217> 542 125<217 467>
LayerCount: 2
Fore
SplineSet
167 467 m 25x60
 292 467 l 25
 292 384 l 25
 167 384 l 25
 167 467 l 25x60
542 467 m 25x44
 667 467 l 25
 667 384 l 25
 542 384 l 25
 542 467 l 25x44
167 384 m 25x20
 292 384 l 25
 292 300 l 25
 167 300 l 25
 167 384 l 25x20
542 384 m 25x04
 667 384 l 25
 667 300 l 25
 542 300 l 25
 542 384 l 25x04
167 300 m 25x60
 292 300 l 25
 292 217 l 25xa0
 167 217 l 25
 167 300 l 25x60
542 300 m 25x84
 667 300 l 25
 667 217 l 25x44
 542 217 l 25x88
 542 300 l 25x84
292 217 m 25xa0
 417 217 l 25
 417 134 l 25
 292 134 l 25x90
 292 217 l 25xa0
417 217 m 25
 542 217 l 25
 542 134 l 25x88
 417 134 l 25
 417 217 l 25
292 134 m 25x90
 417 134 l 25
 417 50 l 25
 292 50 l 25
 292 134 l 25x90
417 134 m 25
 542 134 l 25
 542 50 l 25x88
 417 50 l 25
 417 134 l 25
EndSplineSet
EndChar

StartChar: w
Encoding: 119 119 87
Width: 1084
VWidth: 0
Flags: HW
HStem: 50 167<292 417 667 792> 217 250<167 292 792 917> 217 167<417 667>
VStem: 167 125<217 467> 292 125<50 217> 417 125<217 384> 542 125<217 384> 667 125<50 217> 792 125<217 467>
LayerCount: 2
Fore
SplineSet
167 467 m 25x50
 292 467 l 25x50
 292 384 l 25
 167 384 l 25x30
 167 467 l 25x50
792 467 m 25x4080
 917 467 l 25x4080
 917 384 l 25
 792 384 l 25x2080
 792 467 l 25x4080
167 384 m 25x30
 292 384 l 25
 292 300 l 25
 167 300 l 25
 167 384 l 25x30
417 384 m 25x24
 542 384 l 25
 542 300 l 25
 417 300 l 25
 417 384 l 25x24
542 384 m 25
 667 384 l 25
 667 300 l 25x22
 542 300 l 25
 542 384 l 25
792 384 m 25x2080
 917 384 l 25
 917 300 l 25
 792 300 l 25
 792 384 l 25x2080
167 300 m 25x50
 292 300 l 25
 292 217 l 25x90
 167 217 l 25
 167 300 l 25x50
417 300 m 25x84
 542 300 l 25
 542 217 l 25x24
 417 217 l 25x88
 417 300 l 25x84
542 300 m 25
 667 300 l 25
 667 217 l 25x82
 542 217 l 25
 542 300 l 25
792 300 m 25x8080
 917 300 l 25
 917 217 l 25x4080
 792 217 l 25x81
 792 300 l 25x8080
292 217 m 25x90
 417 217 l 25
 417 134 l 25
 292 134 l 25x88
 292 217 l 25x90
667 217 m 25x82
 792 217 l 25
 792 134 l 25
 667 134 l 25x81
 667 217 l 25x82
292 134 m 25x88
 417 134 l 25
 417 50 l 25
 292 50 l 25
 292 134 l 25x88
667 134 m 25x81
 792 134 l 25
 792 50 l 25
 667 50 l 25
 667 134 l 25x81
EndSplineSet
EndChar

StartChar: x
Encoding: 120 120 88
Width: 834
VWidth: 0
Flags: HW
HStem: 50 84<167 292 542 667> 134 250<292 542> 384 83<167 292 542 667>
VStem: 167 125<50 134 384 467> 292 125<134 384> 417 125<134 384> 542 125<50 134 384 467>
LayerCount: 2
Fore
SplineSet
167 467 m 25x30
 292 467 l 25x30
 292 384 l 25x50
 167 384 l 25
 167 467 l 25x30
542 467 m 25x22
 667 467 l 25
 667 384 l 25x22
 542 384 l 25x44
 542 467 l 25x22
292 384 m 25x50
 417 384 l 25
 417 300 l 25
 292 300 l 25x48
 292 384 l 25x50
417 384 m 25
 542 384 l 25
 542 300 l 25x44
 417 300 l 25
 417 384 l 25
292 300 m 25x08
 417 300 l 25
 417 217 l 25
 292 217 l 25
 292 300 l 25x08
417 300 m 25
 542 300 l 25
 542 217 l 25x04
 417 217 l 25
 417 300 l 25
292 217 m 25x88
 417 217 l 25
 417 134 l 25x48
 292 134 l 25x90
 292 217 l 25x88
417 217 m 25
 542 217 l 25
 542 134 l 25x84
 417 134 l 25
 417 217 l 25
167 134 m 25x90
 292 134 l 25
 292 50 l 25
 167 50 l 25
 167 134 l 25x90
542 134 m 25x84
 667 134 l 25
 667 50 l 25
 542 50 l 25x82
 542 134 l 25x84
EndSplineSet
EndChar

StartChar: y
Encoding: 121 121 89
Width: 834
VWidth: 0
Flags: HW
HStem: -116 83<167 292> 30 20G<292 417> 50 167<417 542> 217 250<167 292 542 667>
VStem: 167 125<-116 -33 217 467> 292 125<-116 217> 417 125<50 217> 542 125<217 467>
LayerCount: 2
Fore
SplineSet
167 467 m 25x98
 292 467 l 25
 292 384 l 25
 167 384 l 25
 167 467 l 25x98
542 467 m 25x91
 667 467 l 25
 667 384 l 25
 542 384 l 25
 542 467 l 25x91
167 384 m 25x88
 292 384 l 25
 292 300 l 25
 167 300 l 25
 167 384 l 25x88
542 384 m 25x81
 667 384 l 25
 667 300 l 25
 542 300 l 25
 542 384 l 25x81
167 300 m 25x98
 292 300 l 25
 292 217 l 25
 167 217 l 25
 167 300 l 25x98
542 300 m 25xa1
 667 300 l 25
 667 217 l 25x91
 542 217 l 25xa2
 542 300 l 25xa1
292 217 m 25x98
 417 217 l 25
 417 134 l 25
 292 134 l 25xa4
 292 217 l 25x98
417 217 m 25
 542 217 l 25
 542 134 l 25xa2
 417 134 l 25
 417 217 l 25
292 134 m 25xc4
 417 134 l 25
 417 50 l 25
 292 50 l 25
 292 134 l 25xc4
417 134 m 25
 542 134 l 25
 542 50 l 25xa2
 417 50 l 25
 417 134 l 25
292 50 m 25xc4
 417 50 l 25
 417 -33 l 25xc4
 292 -33 l 25xc8
 292 50 l 25xc4
167 -33 m 25x88
 292 -33 l 25
 292 -116 l 25
 167 -116 l 25
 167 -33 l 25x88
292 -33 m 25
 417 -33 l 25
 417 -116 l 25x84
 292 -116 l 25
 292 -33 l 25
EndSplineSet
EndChar

StartChar: z
Encoding: 122 122 90
Width: 834
VWidth: 0
Flags: HW
HStem: 50 167<167 292> 50 84<292 667> 217 83<292 417> 300 167<417 542> 384 83<167 417 542 667>
VStem: 167 125<50 217 384 467> 292 125<50 134 217 300 384 467> 417 125<50 134 300 467> 542 125<50 134 384 467>
LayerCount: 2
Fore
SplineSet
167 467 m 25x0c
 292 467 l 25
 292 384 l 25
 167 384 l 25
 167 467 l 25x0c
292 467 m 25
 417 467 l 25x12
 417 384 l 25x0a
 292 384 l 25
 292 467 l 25
417 467 m 25
 542 467 l 25x11
 542 384 l 25x09
 417 384 l 25x0a
 417 467 l 25
542 467 m 25
 667 467 l 25
 667 384 l 25x0880
 542 384 l 25x09
 542 467 l 25
417 384 m 25x2a
 542 384 l 25x29
 542 300 l 25x11
 417 300 l 25
 417 384 l 25x2a
292 300 m 25x22
 417 300 l 25
 417 217 l 25x22
 292 217 l 25x84
 292 300 l 25x22
167 217 m 25x84
 292 217 l 25x84
 292 134 l 25
 167 134 l 25x44
 167 217 l 25x84
167 134 m 25x44
 292 134 l 25x44
 292 50 l 25
 167 50 l 25x84
 167 134 l 25x44
292 134 m 25
 417 134 l 25
 417 50 l 25x42
 292 50 l 25x84
 292 134 l 25
417 134 m 25
 542 134 l 25
 542 50 l 25x41
 417 50 l 25
 417 134 l 25
542 134 m 25
 667 134 l 25
 667 50 l 25x4080
 542 50 l 25
 542 134 l 25
EndSplineSet
EndChar

StartChar: braceleft
Encoding: 123 123 91
Width: 834
VWidth: 0
Flags: HW
HStem: -116 83<417 667> 30 20G<292 417> 50 21G<292 417> 217 83<167 292> 447 20G<292 417> 467 21G<292 417> 550 84<417 667>
VStem: 167 125<217 300> 292 125<-33 217 300 550> 417 125<-116 -33 550 634> 542 125<-116 -33 550 634>
LayerCount: 2
Fore
SplineSet
417 634 m 25x9240
 542 634 l 25
 542 550 l 25x9240
 417 550 l 25x9280
 417 634 l 25x9240
542 634 m 25
 667 634 l 25
 667 550 l 25x9220
 542 550 l 25
 542 634 l 25
292 550 m 25x9a80
 417 550 l 25
 417 467 l 25
 292 467 l 25
 292 550 l 25x9a80
292 467 m 25
 417 467 l 25
 417 384 l 25
 292 384 l 25
 292 467 l 25
292 384 m 25
 417 384 l 25
 417 300 l 25x9280
 292 300 l 25x93
 292 384 l 25
167 300 m 25x93
 292 300 l 25
 292 217 l 25
 167 217 l 25
 167 300 l 25x93
292 217 m 25
 417 217 l 25
 417 134 l 25
 292 134 l 25x9280
 292 217 l 25
292 134 m 25
 417 134 l 25
 417 50 l 25
 292 50 l 25xd280
 292 134 l 25
292 50 m 25
 417 50 l 25
 417 -33 l 25
 292 -33 l 25
 292 50 l 25
417 -33 m 25
 542 -33 l 25
 542 -116 l 25
 417 -116 l 25x9240
 417 -33 l 25
542 -33 m 25
 667 -33 l 25
 667 -116 l 25x9220
 542 -116 l 25
 542 -33 l 25
EndSplineSet
EndChar

StartChar: bar
Encoding: 124 124 92
Width: 459
VWidth: 0
Flags: HW
HStem: -116 21G<167 292> 30 20G<167 292> 50 21G<167 292> 447 20G<167 292> 467 21G<167 292> 614 20G<167 292>
VStem: 167 125<-116 634>
LayerCount: 2
Fore
SplineSet
167 634 m 25x86
 292 634 l 25
 292 550 l 25
 167 550 l 25
 167 634 l 25x86
167 550 m 25
 292 550 l 25
 292 467 l 25
 167 467 l 25x96
 167 550 l 25
167 467 m 25
 292 467 l 25
 292 384 l 25
 167 384 l 25
 167 467 l 25
167 384 m 25
 292 384 l 25
 292 300 l 25
 167 300 l 25
 167 384 l 25
167 300 m 25
 292 300 l 25
 292 217 l 25
 167 217 l 25
 167 300 l 25
167 217 m 25
 292 217 l 25
 292 134 l 25
 167 134 l 25
 167 217 l 25
167 134 m 25
 292 134 l 25
 292 50 l 25
 167 50 l 25xc6
 167 134 l 25
167 50 m 25
 292 50 l 25
 292 -33 l 25
 167 -33 l 25
 167 50 l 25
167 -33 m 25
 292 -33 l 25
 292 -116 l 25
 167 -116 l 25
 167 -33 l 25
EndSplineSet
EndChar

StartChar: braceright
Encoding: 125 125 93
Width: 834
VWidth: 0
Flags: HW
HStem: -116 83<167 417> 30 20G<417 542> 50 21G<417 542> 217 83<542 667> 447 20G<417 542> 467 21G<417 542> 550 84<167 417>
VStem: 167 125<-116 -33 550 634> 292 125<-116 -33 550 634> 417 125<-33 217 300 550> 542 125<217 300>
LayerCount: 2
Fore
SplineSet
167 634 m 25x93
 292 634 l 25
 292 550 l 25
 167 550 l 25
 167 634 l 25x93
292 634 m 25
 417 634 l 25
 417 550 l 25x9280
 292 550 l 25
 292 634 l 25
417 550 m 25
 542 550 l 25
 542 467 l 25
 417 467 l 25x9a40
 417 550 l 25
417 467 m 25
 542 467 l 25
 542 384 l 25
 417 384 l 25
 417 467 l 25
417 384 m 25
 542 384 l 25
 542 300 l 25
 417 300 l 25
 417 384 l 25
542 300 m 25
 667 300 l 25
 667 217 l 25x9220
 542 217 l 25
 542 300 l 25
417 217 m 25x9240
 542 217 l 25
 542 134 l 25
 417 134 l 25
 417 217 l 25x9240
417 134 m 25
 542 134 l 25
 542 50 l 25
 417 50 l 25xd240
 417 134 l 25
417 50 m 25
 542 50 l 25
 542 -33 l 25xd240
 417 -33 l 25xd280
 417 50 l 25
167 -33 m 25x93
 292 -33 l 25
 292 -116 l 25
 167 -116 l 25
 167 -33 l 25x93
292 -33 m 25
 417 -33 l 25
 417 -116 l 25x9280
 292 -116 l 25
 292 -33 l 25
EndSplineSet
EndChar

StartChar: asciitilde
Encoding: 126 126 94
Width: 834
VWidth: 0
Flags: HW
HStem: 300 84<417 667> 384 83<167 417>
VStem: 167 125<384 467> 292 125<384 467> 417 125<300 384> 542 125<300 384>
LayerCount: 2
Fore
SplineSet
167 467 m 25x60
 292 467 l 25
 292 384 l 25
 167 384 l 25
 167 467 l 25x60
292 467 m 25
 417 467 l 25x50
 417 384 l 25x90
 292 384 l 25
 292 467 l 25
417 384 m 25x90
 542 384 l 25
 542 300 l 25
 417 300 l 25x88
 417 384 l 25x90
542 384 m 25
 667 384 l 25
 667 300 l 25x84
 542 300 l 25
 542 384 l 25
EndSplineSet
EndChar

